<svg width="26" height="32" viewBox="0 0 26 32" fill="none" xmlns="http://www.w3.org/2000/svg">
<path d="M15.5112 0.166672C16.351 0.166851 17.1563 0.500599 17.75 1.09451L24.7389 8.08334C25.3328 8.67706 25.6665 9.48239 25.6667 10.3222V28.6667C25.6667 29.5065 25.3331 30.312 24.7392 30.9058C24.1453 31.4997 23.3399 31.8333 22.5 31.8333H3.50004C2.66019 31.8333 1.85473 31.4997 1.26087 30.9058C0.667004 30.312 0.333374 29.5065 0.333374 28.6667V3.33334C0.333374 2.49349 0.667004 1.68803 1.26087 1.09417C1.85473 0.500302 2.66019 0.166672 3.50004 0.166672H15.5112ZM13 3.33334H3.50004V28.6667H22.5V12.8333H15.375C14.7452 12.8333 14.1411 12.5831 13.6957 12.1377C13.2503 11.6923 13 11.0882 13 10.4583V3.33334ZM17.75 19.1667C18.17 19.1667 18.5727 19.3335 18.8696 19.6304C19.1666 19.9274 19.3334 20.3301 19.3334 20.75C19.3334 21.1699 19.1666 21.5727 18.8696 21.8696C18.5727 22.1665 18.17 22.3333 17.75 22.3333H8.25004C7.83011 22.3333 7.42739 22.1665 7.13046 21.8696C6.83352 21.5727 6.66671 21.1699 6.66671 20.75C6.66671 20.3301 6.83352 19.9274 7.13046 19.6304C7.42739 19.3335 7.83011 19.1667 8.25004 19.1667H17.75ZM9.83337 12.8333C10.2533 12.8333 10.656 13.0002 10.953 13.2971C11.2499 13.594 11.4167 13.9967 11.4167 14.4167C11.4167 14.8366 11.2499 15.2393 10.953 15.5363C10.656 15.8332 10.2533 16 9.83337 16H8.25004C7.83011 16 7.42739 15.8332 7.13046 15.5363C6.83352 15.2393 6.66671 14.8366 6.66671 14.4167C6.66671 13.9967 6.83352 13.594 7.13046 13.2971C7.42739 13.0002 7.83011 12.8333 8.25004 12.8333H9.83337ZM16.1667 3.98884V9.66667H21.8445L16.1667 3.98884Z" fill="#004634"/>
</svg>
