<svg width="32" height="32" viewBox="0 0 32 32" fill="none" xmlns="http://www.w3.org/2000/svg">
<path d="M9.33331 16L13.3333 20L22.6666 10.6667M26.6666 20C25.3333 21.3333 28.3333 25 26.6666 26.6667C25 28.3333 21.3333 25.3333 20 26.6667C18.6666 28 18 30.6667 16 30.6667C14 30.6667 13.3333 28 12 26.6667C10.6666 25.3333 6.99998 28.3333 5.33331 26.6667C3.66665 25 6.66665 21.3333 5.33331 20C3.99998 18.6667 1.33331 18 1.33331 16C1.33331 14 3.99998 13.3333 5.33331 12C6.66665 10.6667 3.66665 6.99999 5.33331 5.33333C6.99998 3.66666 10.6666 6.66666 12 5.33333C13.3333 3.99999 14 1.33333 16 1.33333C18 1.33333 18.6666 3.99999 20 5.33333C21.3333 6.66666 25 3.66666 26.6666 5.33333C28.3333 6.99999 25.3333 10.6667 26.6666 12C28 13.3333 30.6666 14 30.6666 16C30.6666 18 28 18.6667 26.6666 20Z" stroke="#AEAEAE" stroke-width="3"/>
</svg>
