<svg xmlns="http://www.w3.org/2000/svg" viewBox="0 0 83.59 83.59">
  <defs>
    <style>
      .cls-1 {
        fill: #014735;
        opacity: 1;
      }

      .cls-2 {
        fill: #c7dd86;
      }

      .cls-3 {
        fill: #c7dd85;
      }
    </style>
  </defs>
  <g id="Layer_2" data-name="Layer 2">
    <g id="Layer_9" data-name="Layer 9">
      <path
        class="cls-1"
        fill="red"
        d="M67.65,27.82c-1.3-4.26-2.6-8.52-3.86-12.79-.49-1.65-1.5-2-3-1.51-2.08.67-4.23,1.16-6.27,2a20.25,20.25,0,0,0-3.39,2.2c-1.07-.92-2.7-.53-4.37.08a30.32,30.32,0,0,1-3.81,1.15C37,20.18,34.41,25,34,29.85H18.13c-1.75,0-2.52.82-2.5,2.57,0,3.32.06,6.64,0,10,0,1.85.74,2.68,2.61,2.62,2.24-.07,4.48,0,6.8,0v7.55c-2.35,0-4.53,0-6.72,0-1.81-.05-2.71.67-2.69,2.57,0,3.38,0,6.77,0,10.15,0,1.66.74,2.43,2.41,2.43q19.32,0,38.64,0c1.67,0,2.41-.76,2.41-2.42V63.32l4-1.2c2.57-.79,2.85-1.32,2-3.9q-3-8.74-5.93-17.5c0-2.67,0-5.33,0-8a5.83,5.83,0,0,0,1.06-.26c2-.65,3.94-1.22,5.91-1.79C67.58,30.23,68.12,29.34,67.65,27.82ZM48.84,46.42q.69,3,1.4,6h-1.4Zm-9.47-5.28V36.62a2.75,2.75,0,0,0,1.06-1.86,4.2,4.2,0,0,1,.26-.95h5a14.57,14.57,0,0,1,.81,2.58c.38,1.58.74,3.17,1.11,4.75Zm5.39,4v7.38H29V45.11Zm-25.2-4V33.84H34.19a14.52,14.52,0,0,0,.54,2.23,2.2,2.2,0,0,0,.74.92v4.1ZM35.43,63.78H19.54v-7.3H35.43Zm3.9-7.3H51.19c.43,1.84.85,3.68,1.29,5.52A9.13,9.13,0,0,0,53,63.79H39.33ZM56,60.29c-1.85-8-3.69-15.87-5.54-23.84l2.87-.87,3.25,9.51v.2c.09.2.18.41.28.62l4.36,12.8Zm4.7-32.06c-1.17-.76-2.06-1.83-2.87-1.77a5,5,0,0,0-4.74,3.38c-.57,2-1.76,2.54-3.45,2.78-4.08-5.68-6.47-6.16-11.51-2.32A6.79,6.79,0,0,1,42.46,23,38.85,38.85,0,0,1,48,21.4c.86-.17,1.84.35,2.76.53a9.54,9.54,0,0,0,3.17.53c2.32-.41,2.66-1.08,2.36-3.51l4.34-1.31c1,3.27,1.94,6.43,2.94,9.71Z"
      />
      <rect
        class="cls-2"
        x="38.72"
        y="4.73"
        width="6.15"
        height="74.13"
        transform="translate(-17.26 44.25) rotate(-47.38)"
      />
      <path
        class="cls-3"
        d="M67,69.86,11.73,19l4.84-5.26L71.86,64.6ZM13.14,18.93,67,68.45l3.49-3.79L16.63,15.14Z"
      />
      <path
        class="cls-2"
        d="M41.79,83.09a41.3,41.3,0,1,1,41.3-41.3A41.34,41.34,0,0,1,41.79,83.09Zm0-76.44A35.15,35.15,0,1,0,76.94,41.79,35.19,35.19,0,0,0,41.79,6.65Z"
      />
      <path
        class="cls-3"
        d="M41.79,83.59a41.8,41.8,0,1,1,41.8-41.8A41.84,41.84,0,0,1,41.79,83.59ZM41.79,1a40.8,40.8,0,1,0,40.8,40.79A40.89,40.89,0,0,0,41.79,1Zm0,76.44A35.65,35.65,0,1,1,77.44,41.79,35.69,35.69,0,0,1,41.79,77.44Zm0-70.29A34.65,34.65,0,1,0,76.44,41.79,34.71,34.71,0,0,0,41.79,7.15Z"
      />
    </g>
  </g>
</svg>
