<svg xmlns="http://www.w3.org/2000/svg" viewBox="0 0 79.07 83.27">
  <defs>
    <style>
    #Layer_5 path.cls-1{
        fill: #C7DD86 !important;
        opacity: 1 !important;
    }
    #Layer_5 path.cls-2{
        fill: #014735 !important;
    }

    </style>
  </defs>
  <g id="Layer_2" data-name="Layer 2">
    <g id="Layer_5" data-name="Layer 5">
      <path
        class="cls-1"
        d="M26.3,57.42A1.49,1.49,0,0,1,26.2,59l-1.09,1.56a33.85,33.85,0,0,1-1.57-3.2l-.3-.71h1.85A1.45,1.45,0,0,1,26.3,57.42Z"
      />
      <path
        class="cls-1"
        d="M32,34.92a1.5,1.5,0,0,1-1.5-1.41c-.28-4.63.34-8.47,1.81-11.36a15.68,15.68,0,0,0-6.23,4.66,1.5,1.5,0,1,1-2.3-1.93,17,17,0,0,1,11.81-6.49h.1a1.47,1.47,0,0,1,1.56.76A1.49,1.49,0,0,1,36.89,21c-3.26,2.79-3.66,8.25-3.41,12.33a1.51,1.51,0,0,1-1.41,1.59Z"
      />
      <path
        class="cls-1"
        d="M41.42,76.79a16.17,16.17,0,0,1-5.37-.92,1.53,1.53,0,0,1-1-1.92A1.47,1.47,0,0,1,37,73a13.42,13.42,0,0,0,12.21-1.7c4.07-2.76,7.74-11.78,7.55-24.19a21.66,21.66,0,0,1-11.2,5.56,1.51,1.51,0,0,1-1.65-2c0-.09,3.27-8.18,3.07-15.22a18,18,0,0,1-8.89,4.73,1.5,1.5,0,0,1-.48-3c5.18-.82,9.27-6,9.31-6a1.5,1.5,0,0,1,2.65.61c1.27,6-.66,13.44-1.92,17.34a18.74,18.74,0,0,0,3.13-1.33,19.06,19.06,0,0,0,6.12-5.26,1.5,1.5,0,0,1,2.69.8c1,13.8-2.57,26.34-8.7,30.49A16.74,16.74,0,0,1,41.42,76.79Z"
      />
      <path
        class="cls-2"
        d="M49.83,69.65,43.08,59.6h2a1.5,1.5,0,0,0,1.33-.81,1.45,1.45,0,0,0-.12-1.54l-6.77-9.43h2.8A1.47,1.47,0,0,0,43.64,47a1.5,1.5,0,0,0-.09-1.53l-2.69-3.84-6.22-8.91-1-1.45a1.5,1.5,0,0,0-1.22-.64,1.44,1.44,0,0,0-1.22.65l-3.5,5.08L24.9,32.49h2.78a1.5,1.5,0,0,0,1.23-2.35L25.8,25.68,19,16a1.46,1.46,0,0,0-1.22-.65,1.51,1.51,0,0,0-1.23.65L6.63,30.34a1.52,1.52,0,0,0-.09,1.53,1.5,1.5,0,0,0,1.32.8h2L3,41.89a1.48,1.48,0,0,0-.15,1.55,1.51,1.51,0,0,0,1.34.83H7.49l-7,10a1.5,1.5,0,0,0-.11,1.54,1.52,1.52,0,0,0,1.33.8h12l-.25,9.53a1.47,1.47,0,0,0,.41,1.07,1.49,1.49,0,0,0,1.08.45H16.5l-1.34,1.95a1.48,1.48,0,0,0-.11,1.54,1.51,1.51,0,0,0,1.33.8h12L28.1,81.5a1.5,1.5,0,0,0,.43,1.07A1.47,1.47,0,0,0,29.6,83h7.08a1.49,1.49,0,0,0,1.5-1.48V72H48.59a1.5,1.5,0,0,0,1.24-2.32Zm-45.24-16,7-10a1.45,1.45,0,0,0,.1-1.54,1.5,1.5,0,0,0-1.32-.8H7.18l6.39-8.61h4.28a1.49,1.49,0,0,0,0-3H10.7L17.78,19.4l6.06,8.68,1,1.42H22a1.49,1.49,0,0,0-1.21,2.36l.59.83L25.89,39,24.3,41.28H18.5a1.5,1.5,0,0,0,0,3h3.74l-1,1.41a1.46,1.46,0,0,0-.09,1.53,1.47,1.47,0,0,0,1.31.8h2l-2.85,3.85-1.32,1.8Zm11.89,11,.23-8.08H18.1l-.44.6a1.47,1.47,0,0,0-.14,1.55,1.49,1.49,0,0,0,1.34.82h1.7v2.25l-2,2.86ZM35.2,80H31.12L31.35,72H35.2ZM19.23,69l.9-1.31,3.41-4.89,1.57-2.26L26.2,59a1.49,1.49,0,0,0,.1-1.55,1.45,1.45,0,0,0-1.21-.79H21.81l.94-1.25L24,53.66l3.73-5,.45-.6h4.28a1.49,1.49,0,1,0,0-3H25.34l0,0,4.17-6.07,2.89-4.2L37,41.3l.59.86,1.88,2.68H36.64a1.49,1.49,0,0,0-1.21,2.36l6.75,9.42H33a1.49,1.49,0,0,0,.1,3h6.35L45.79,69Z"
      />
      <path
        class="cls-2"
        d="M36.68,83.27H29.6a1.71,1.71,0,0,1-1.25-.52,1.78,1.78,0,0,1-.5-1.25l.26-9.28H16.38a1.76,1.76,0,0,1-1.55-.94,1.72,1.72,0,0,1,.13-1.8L16,67.93H15a1.71,1.71,0,0,1-1.26-.53,1.74,1.74,0,0,1-.48-1.25l.24-9.27H1.74a1.79,1.79,0,0,1-1.55-.94,1.72,1.72,0,0,1,.13-1.79L7,44.52H4.22a1.74,1.74,0,0,1-1.4-2.78l6.54-8.82H7.86A1.74,1.74,0,0,1,6.32,32a1.77,1.77,0,0,1,.11-1.79l9.91-14.39a1.79,1.79,0,0,1,1.43-.76,1.73,1.73,0,0,1,1.43.76L29.11,30a1.78,1.78,0,0,1,.12,1.81,1.76,1.76,0,0,1-1.55.94H25.39l2.29,3.19L31,31.15a1.72,1.72,0,0,1,1.42-.76,1.76,1.76,0,0,1,1.42.74l9.92,14.2a1.74,1.74,0,0,1,.11,1.8,1.71,1.71,0,0,1-1.53.94H40l6.49,9a1.74,1.74,0,0,1-1.42,2.75H43.55L50,69.51a1.7,1.7,0,0,1,.09,1.79,1.73,1.73,0,0,1-1.53.92H38.43v9.32A1.74,1.74,0,0,1,36.68,83.27ZM17.77,15.55a1.26,1.26,0,0,0-1,.54L6.84,30.48a1.28,1.28,0,0,0-.08,1.28,1.24,1.24,0,0,0,1.1.66h2.5L3.23,42a1.25,1.25,0,0,0-.13,1.29A1.27,1.27,0,0,0,4.22,44H8L.73,54.43a1.24,1.24,0,0,0,1,2H14l-.26,9.78a1.24,1.24,0,0,0,.34.9,1.26,1.26,0,0,0,.9.37h2l-1.61,2.34a1.21,1.21,0,0,0-.09,1.28,1.23,1.23,0,0,0,1.1.67H28.63l-.28,9.78a1.28,1.28,0,0,0,.36.9,1.24,1.24,0,0,0,.89.37h7.08a1.24,1.24,0,0,0,1.25-1.23V71.72H48.59a1.24,1.24,0,0,0,1-1.93h0l-7-10.44h2.48a1.23,1.23,0,0,0,1-2l-7.05-9.82h3.28a1.23,1.23,0,0,0,1.09-.67,1.26,1.26,0,0,0-.08-1.28l-9.91-14.2a1.28,1.28,0,0,0-1-.53,1.2,1.2,0,0,0-1,.54L27.69,36.8l-3.27-4.56h3.26a1.25,1.25,0,0,0,1.1-.67,1.23,1.23,0,0,0-.08-1.29L18.79,16.09A1.23,1.23,0,0,0,17.77,15.55ZM35.45,80.29H30.87l.23-8.57h4.35Zm-4.07-.5H35V72.22H31.59ZM46.26,69.24H18.75L26,58.82a1.23,1.23,0,0,0,.09-1.28,1.22,1.22,0,0,0-1-.66H21.31l6.77-9.11h4.41a1.24,1.24,0,1,0,0-2.47H24.91l.22-.39,7.29-10.59L40,45.09H36.64a1.25,1.25,0,0,0-1.11.68,1.23,1.23,0,0,0,.1,1.28l7,9.82H33.05a1.24,1.24,0,0,0,.09,2.47h6.48l.07.11Zm-26.55-.5H45.33l-6-8.89H33.14A1.74,1.74,0,0,1,33,56.38H41.7l-6.48-9a1.74,1.74,0,0,1-.13-1.8,1.72,1.72,0,0,1,1.55-.95H39l-6.57-9.41-6.61,9.61h6.68a1.74,1.74,0,1,1,0,3.47H28.33l-6,8.11H25a.59.59,0,0,1,.17,0,1.66,1.66,0,0,1,1.37.92,1.74,1.74,0,0,1-.12,1.8Zm-1-3.78H16.23l.23-8.58h2.13l-.73,1a1.24,1.24,0,0,0,1,2h1.95v2.58Zm-2-.5h1.72l1.85-2.68V59.85H18.86a1.73,1.73,0,0,1-1.4-2.77l.14-.2H17Zm3.7-10.55H4.11l7.24-10.43a1.24,1.24,0,0,0-1-1.95H6.69l6.75-9.11h4.41a1.24,1.24,0,1,0,0-2.48H10.22l7.56-11,7.53,10.79H22a1.24,1.24,0,0,0-1,2L26.2,39l-1.77,2.56H18.5a1.25,1.25,0,0,0,0,2.49h4.22l-1.24,1.8a1.24,1.24,0,0,0,1,1.94H25Zm-15.37-.5H20.19L24,48.26H22.5a1.74,1.74,0,0,1-1.43-2.72l.7-1H18.5a1.75,1.75,0,0,1,0-3.49h5.67L25.59,39l-5-7a1.79,1.79,0,0,1-.13-1.81A1.76,1.76,0,0,1,22,29.25h2.35l-6.57-9.41-6.61,9.6h6.68a1.74,1.74,0,0,1,0,3.48H13.69L7.68,41h2.66a1.77,1.77,0,0,1,1.54.93,1.71,1.71,0,0,1-.12,1.81Z"
      />
      <path
        class="cls-2"
        d="M57.62,78.47a2,2,0,0,1-1.22-3.58C74.87,60.69,76.18,43.1,74.85,32.58a25.61,25.61,0,0,1-10.1,10.76,2,2,0,0,1-2.94-1.63,32.94,32.94,0,0,1,1.31-12.14,17.33,17.33,0,0,0-5,6.71,2,2,0,0,1-3.81-1.23c1.72-5.85.93-12.59-.13-17.5C50,24.46,40.56,27.41,40,27.57a2,2,0,0,1-2-3.36C42,20.47,44,16.61,44,12.72a12,12,0,0,0-.62-3.8c-.09.2-.18.39-.29.59-2.95,5.43-11,7.16-11.39,7.23a2.06,2.06,0,0,1-1.15-.11A4.92,4.92,0,0,1,27.23,13a4.86,4.86,0,0,1-.07-1.37c-4.84,4-4,8.38-3.95,8.62a2,2,0,0,1-1.53,2.37,2,2,0,0,1-2.38-1.49c0-.11-2.32-10.9,12.19-16.44A2,2,0,0,1,33.6,8c-1.3,1.28-2.63,3.34-2.45,4.24a.79.79,0,0,0,.38.44c2.18-.58,6.5-2.23,8-5.07a5.53,5.53,0,0,0,0-4.86A2,2,0,0,1,42.86.55,18,18,0,0,1,48,12.67a16.45,16.45,0,0,1-1.8,7.41c3.19-2.24,6.15-5.55,5.88-10a2,2,0,0,1,3.86-.84A55.91,55.91,0,0,1,59.3,27.63a22.44,22.44,0,0,1,7.59-4.86,2,2,0,0,1,2.32,3.07s-3.12,4.29-3.46,12c3.11-2.58,7.52-7.58,6.82-14.92A2,2,0,0,1,76.42,22c.13.33,12.57,32.93-17.58,56.11A2,2,0,0,1,57.62,78.47Z"
      />
    </g>
  </g>
</svg>
