<svg xmlns="http://www.w3.org/2000/svg" viewBox="0 0 85.33 80.22">
  <defs>
    <style>
      .cls-1 {
        fill: #014735;
        opacity: 1;
      }

      .cls-2 {
        fill: #c7dd86;
        opacity: 1;
      }
    </style>
  </defs>
  <g id="Layer_2" data-name="Layer 2">
    <g id="Layer_8" data-name="Layer 8">
      <path
        class="cls-1"
        d="M76.28,63.69h-.14a1.77,1.77,0,0,1-1.63-1.9c.38-4.94-.63-11.39-7.61-14a1.76,1.76,0,0,1-.67-.45l-3-3.21a17.06,17.06,0,0,0-26.34,1.8l-2.56,3.61a1.77,1.77,0,1,1-2.89-2.05L34,43.86a20.59,20.59,0,0,1,31.8-2.17l2.74,2.92c6.69,2.7,10.15,9,9.5,17.44A1.77,1.77,0,0,1,76.28,63.69Z"
      />
      <path
        class="cls-1"
        d="M29.6,16.79a2,2,0,0,1-2-1.57c-1-4.44-4.14-4.82-4.5-4.85A2,2,0,0,1,21.3,8.25a2,2,0,0,1,2.08-1.87c2.25.11,6.86,1.92,8.18,8A2,2,0,0,1,30,16.75,2.09,2.09,0,0,1,29.6,16.79Z"
      />
      <path
        class="cls-1"
        d="M46.75,29.66c-2.79,0-4.86-.84-6.14-2.49a7.05,7.05,0,0,1-1.1-5.74,2,2,0,0,1,3.88.95,3.24,3.24,0,0,0,.38,2.34,4,4,0,0,0,3,.94,2,2,0,0,1,0,4Z"
      />
      <path
        class="cls-1"
        d="M61.36,14.74h-.1a2,2,0,0,1-1.89-1.83,2,2,0,0,1,.3-1.36c1.11-3.27,3.81-4.93,7.53-4.64a2,2,0,0,1-.32,4c-2.49-.2-3.16.92-3.49,2.17A2.05,2.05,0,0,1,61.36,14.74Z"
      />
      <path
        class="cls-1"
        d="M24.9,15.08a2,2,0,0,1-1.42-3.41L26.75,8.4a2,2,0,0,1,2.83,2.83L26.31,14.5A2,2,0,0,1,24.9,15.08Z"
      />
      <path
        class="cls-1"
        d="M41.37,28.92a2,2,0,0,1-1.25-3.55l3.72-3a2,2,0,0,1,2.51,3.12l-3.73,3A2,2,0,0,1,41.37,28.92Z"
      />
      <path
        class="cls-1"
        d="M65.69,14.81a2,2,0,0,1-1.54-.73L61,10.29a2,2,0,1,1,3.09-2.54l3.12,3.79A2,2,0,0,1,67,14.35,2,2,0,0,1,65.69,14.81Z"
      />
      <path
        class="cls-2"
        d="M21.11,19.14A1.52,1.52,0,0,1,19.74,17l.39-.84a1.5,1.5,0,0,1,2.73,1.25l-.39.84A1.5,1.5,0,0,1,21.11,19.14Z"
      />
      <path
        class="cls-2"
        d="M18.88,24.17h0a1.5,1.5,0,0,1-1.47-1.53l0-.93a1.47,1.47,0,0,1,1.53-1.46,1.49,1.49,0,0,1,1.47,1.53l0,.92A1.49,1.49,0,0,1,18.88,24.17Z"
      />
      <path
        class="cls-2"
        d="M23.06,34.59a1.48,1.48,0,0,1-1.3-.76L21.3,33a1.5,1.5,0,0,1,2.62-1.47l.45.8a1.5,1.5,0,0,1-1.31,2.24Z"
      />
      <path
        class="cls-2"
        d="M48.21,21.58a1.58,1.58,0,0,1-.6-.13,1.51,1.51,0,0,1-.77-2s.14-.33.31-.82a1.5,1.5,0,0,1,2.84,1c-.23.66-.4,1-.4,1A1.51,1.51,0,0,1,48.21,21.58Z"
      />
      <path
        class="cls-2"
        d="M49.66,15.77h-.14a1.5,1.5,0,0,1-1.35-1.64c0-.48.06-1,.06-1.42v-.39a1.5,1.5,0,1,1,3-.1v.49a16.57,16.57,0,0,1-.08,1.71A1.5,1.5,0,0,1,49.66,15.77Zm-1.1-6.84a1.5,1.5,0,0,1-1.33-.81,7.26,7.26,0,0,0-.93-1.38,1.5,1.5,0,0,1,2.28-1.95,11.19,11.19,0,0,1,1.31,1.94,1.52,1.52,0,0,1-.64,2A1.56,1.56,0,0,1,48.56,8.93ZM43.38,4.42a1.47,1.47,0,0,1-.58-.12,14.88,14.88,0,0,0-1.71-.58A1.5,1.5,0,1,1,41.87.83a15.37,15.37,0,0,1,2.08.7,1.5,1.5,0,0,1-.57,2.89Z"
      />
      <path
        class="cls-2"
        d="M36.5,3h-.07l-1,0A1.5,1.5,0,0,1,34,1.47,1.51,1.51,0,0,1,35.53,0l1,0a1.5,1.5,0,0,1-.08,3Z"
      />
      <path
        class="cls-2"
        d="M72.69,43.49a1.51,1.51,0,0,1-.41-.06,1.32,1.32,0,0,1-.85-1.67c.18-.56.34-1.1.49-1.64a1.31,1.31,0,0,1,1.62-.93,1.33,1.33,0,0,1,.94,1.63c-.16.57-.33,1.16-.52,1.76A1.34,1.34,0,0,1,72.69,43.49Zm1.37-6H73.9A1.33,1.33,0,0,1,72.74,36c.07-.57.13-1.14.16-1.68a1.33,1.33,0,1,1,2.65.16c0,.6-.09,1.22-.17,1.85A1.34,1.34,0,0,1,74.06,37.46Zm.08-6.18a1.33,1.33,0,0,1-1.32-1.19c-.06-.56-.14-1.12-.23-1.67A1.32,1.32,0,0,1,75.2,28c.11.61.2,1.23.26,1.84a1.33,1.33,0,0,1-1.18,1.46Zm-1.39-6a1.32,1.32,0,0,1-1.24-.87c-.2-.53-.41-1.05-.64-1.55a1.33,1.33,0,1,1,2.42-1.1c.25.56.49,1.14.71,1.73a1.32,1.32,0,0,1-.79,1.7A1.25,1.25,0,0,1,72.75,25.26Zm-2.88-5.47a1.33,1.33,0,0,1-1.08-.55,15,15,0,0,0-1-1.23,1.33,1.33,0,0,1,1.89-1.86,13.22,13.22,0,0,1,1.25,1.53,1.33,1.33,0,0,1-.29,1.85A1.28,1.28,0,0,1,69.87,19.79Z"
      />
      <path
        class="cls-1"
        d="M83.56,73.92a1.76,1.76,0,0,1-1.39-.68L80,70.53c-3.06-3.88-6.85-6-10.64-5.89s-7.76,2.46-10.81,6.69l-.89,1.23a1.77,1.77,0,0,1-2.87-2.07l.89-1.23c3.71-5.15,8.54-8.05,13.6-8.16s9.74,2.46,13.51,7.24L85,71.05a1.78,1.78,0,0,1-.29,2.49A1.83,1.83,0,0,1,83.56,73.92Z"
      />
      <path
        class="cls-1"
        d="M59.92,49.59a1.79,1.79,0,0,1-1.56-.91c-3.29-6-9.51-3.47-10.2-3.16a1.78,1.78,0,0,1-1.43-3.25c3.37-1.49,10.79-2.43,14.73,4.7a1.76,1.76,0,0,1-1.54,2.62Z"
      />
      <path
        class="cls-1"
        d="M41.93,48.34a1.83,1.83,0,0,1-1.26-.51,1.8,1.8,0,0,1-.51-1.26,1.38,1.38,0,0,1,0-.35,1.19,1.19,0,0,1,.1-.32,1.51,1.51,0,0,1,.16-.31,2,2,0,0,1,.22-.27,2.61,2.61,0,0,1,.27-.22l.3-.17.34-.1a2,2,0,0,1,.69,0l.33.1.31.17a1.38,1.38,0,0,1,.26.22,1.44,1.44,0,0,1,.22.27,1.14,1.14,0,0,1,.16.31,1.73,1.73,0,0,1,.11.32,2.09,2.09,0,0,1,0,.35,1.82,1.82,0,0,1-.53,1.26A1.78,1.78,0,0,1,41.93,48.34Z"
      />
      <path
        class="cls-1"
        d="M70.08,58.81a2.07,2.07,0,0,1-.35,0,2.25,2.25,0,0,1-.64-.27,1.78,1.78,0,0,1-.26-.22,1.13,1.13,0,0,1-.22-.27,1.17,1.17,0,0,1-.17-.31,2,2,0,0,1-.1-.32,2.07,2.07,0,0,1,0-.35,1.87,1.87,0,0,1,0-.34,1.91,1.91,0,0,1,.1-.34,1.11,1.11,0,0,1,.17-.3,1,1,0,0,1,.22-.27,1.83,1.83,0,0,1,2.5,0,1.77,1.77,0,0,1-1.25,3Z"
      />
      <path
        class="cls-1"
        d="M21.59,80.22h0a10.75,10.75,0,0,1-8.67-4.87l-1.57-2.18a1.77,1.77,0,0,1,.4-2.47,1.76,1.76,0,0,1,2.47.4l1.58,2.18a7.31,7.31,0,0,0,5.8,3.4,7.18,7.18,0,0,0,5.8-3.34l2.39-3.25a1.77,1.77,0,1,1,2.85,2.09l-2.38,3.26A10.73,10.73,0,0,1,21.59,80.22Z"
      />
      <path
        class="cls-1"
        d="M15.87,79.27h-.23c-8.35-1.09-13.42-4.11-15.08-9C-3,59.93,11.3,45.43,11.91,44.81a1.77,1.77,0,0,1,2.51,2.5c-3.72,3.74-12.86,15-10.5,21.86C5.1,72.63,9.2,74.84,16.1,75.75a1.77,1.77,0,0,1-.23,3.52Z"
      />
      <path
        class="cls-1"
        d="M27.93,78.63a1.77,1.77,0,0,1-.23-3.52c6.69-.88,10.65-3,11.79-6.41,2.4-7.13-7.55-19-11.58-23a1.77,1.77,0,1,1,2.49-2.52c.65.64,16,16,12.45,26.65-1.61,4.77-6.55,7.72-14.69,8.79Z"
      />
      <path
        class="cls-1"
        d="M19.15,49.2c-3,0-7.36-.5-9.07-2.93-.56-.8-1.31-2.5,0-4.93a9.81,9.81,0,0,1,6.4-5.16,7.86,7.86,0,0,1,4.33.17,7.22,7.22,0,0,1,3.5-1.2,5.88,5.88,0,0,1,4.8,2.22,5.27,5.27,0,0,1,1.32,5.5C29.23,46.39,24.27,48.65,22,49A21.19,21.19,0,0,1,19.15,49.2Zm-1.69-9.61a6.36,6.36,0,0,0-4.24,3.47c-.22.39-.43.91-.24,1.17.93,1.33,6.18,1.68,8.46,1.31,1.37-.23,5-2,5.69-3.85.15-.42.21-1-.62-2a2.42,2.42,0,0,0-2-1c-1.69.08-3.58,2.13-4.11,2.84a1.77,1.77,0,0,1-2.95-1.93Z"
      />
      <path
        class="cls-1"
        d="M14.62,40.31a1.75,1.75,0,0,1-1.3-.57l-7-7.62A1.8,1.8,0,0,1,6,30.28a1.77,1.77,0,0,1,1.49-1.12l7-.64,4.71-6.29a1.77,1.77,0,0,1,1.78-.67,1.8,1.8,0,0,1,1.36,1.34l2.84,12.29a1.77,1.77,0,1,1-3.45.8l-2-8.59-2.9,3.87a1.79,1.79,0,0,1-1.26.7l-4.16.38,4.59,5a1.77,1.77,0,0,1-.1,2.5A1.74,1.74,0,0,1,14.62,40.31Z"
      />
    </g>
  </g>
</svg>
