<svg xmlns="http://www.w3.org/2000/svg" viewBox="0 0 84.47 84.47">
  <defs>
    <style>
      .cls-1 {
        fill: #004634;
        opacity: 1;
      }

      .cls-2 {
        fill: #c7dd85;
        opacity: 1;
      }
    </style>
  </defs>
  <g id="Layer_2" data-name="Layer 2">
    <g id="Layer_4" data-name="Layer 4">
      <circle class="cls-1" cx="60.51" cy="25.68" r="7.09" />
      <path
        class="cls-1"
        d="M64.35,35l-8.34-1-4.22-3.74s-.76-1.63-4.22-1.82l-3.25-.19V26.35h5.27v-3H34.25v3h5v2.11H9.05v3.16h9.39a4.59,4.59,0,0,0,4.12,3.73H29a4.72,4.72,0,0,0,.67,5c2,2.2,10.21,10.21,10.21,10.21a5.32,5.32,0,0,0,5.61,1L50.17,48l1.53-.29v27.6s13.41-.48,17.44-8.72l.1-24.06S69.33,36.5,64.35,35ZM44.51,42.45c-.58.19-.72-.1-.72-.1l-7.14-7,9.59-.19,3.4,3.36S45.08,42.26,44.51,42.45Z"
      />
      <path
        class="cls-2"
        d="M42.24,84A41.74,41.74,0,1,1,84,42.24,41.78,41.78,0,0,1,42.24,84Zm0-77.26A35.53,35.53,0,1,0,77.76,42.24,35.58,35.58,0,0,0,42.24,6.71Z"
      />
      <path
        class="cls-2"
        d="M42.24,84.47A42.24,42.24,0,1,1,84.47,42.24,42.29,42.29,0,0,1,42.24,84.47ZM42.24,1A41.24,41.24,0,1,0,83.47,42.24,41.3,41.3,0,0,0,42.24,1Zm0,77.26a36,36,0,1,1,36-36A36.06,36.06,0,0,1,42.24,78.26Zm0-71.05a35,35,0,1,0,35,35A35.1,35.1,0,0,0,42.24,7.21Z"
      />
      <rect
        class="cls-2"
        x="38.38"
        y="7.52"
        width="5.85"
        height="70.59"
        transform="translate(-18.17 44.23) rotate(-47.38)"
      />
      <path
        class="cls-2"
        d="M65.33,69.58,12.65,21.1l4.64-5L70,64.53ZM14.06,21,65.27,68.16l3.29-3.57L17.35,17.47Z"
      />
    </g>
  </g>
</svg>
