<svg xmlns="http://www.w3.org/2000/svg" viewBox="0 0 84.28 83.03">
  <defs>
    <style>
      .cls-1 {
        fill: #014735;
        opacity: 1;
      }

      .cls-2 {
        fill: #c7dd86;
        opacity: 1;
      }
    </style>
  </defs>
  <g id="Layer_2" data-name="Layer 2">
    <g id="Layer_2-2" data-name="Layer 2">
      <path
        class="cls-1"
        d="M59.28,83A23.14,23.14,0,0,1,48.41,80.3c-9.54-5-13.14-15.64-12.48-23.89a25,25,0,0,1,2.07-8,26.58,26.58,0,0,1,6.92-9.26h0c7-6.19,10.63-11.91,11-17.49a15.51,15.51,0,0,0-1.71-7.17,2,2,0,0,1,2.76-2.64c.19.1,15.11,8.61,15.53,23.83a2,2,0,0,1,2.85,0A34,34,0,0,1,78,38.9a35.91,35.91,0,0,1,4.7,8.44l0,.1c3.91,11.73.15,24.48-9.15,31A25,25,0,0,1,59.28,83Zm.41-64.22a19.71,19.71,0,0,1,.2,3.07c-.41,6.78-4.44,13.4-12.32,20.34h0A22.42,22.42,0,0,0,41.67,50a20.7,20.7,0,0,0-1.75,6.73c-.56,6.94,2.43,15.83,10.36,20s16.24,1.74,21-1.61c7.85-5.5,11-16.35,7.67-26.41a32.34,32.34,0,0,0-4.16-7.45l-.2-.26c-2.09,4.75-4.79,5.9-5.15,6a2,2,0,0,1-2.57-2.58C71.63,32,64.8,23.22,59.69,18.74ZM46.25,40.65h0Z"
      />
      <line class="cls-2" x1="34.14" y1="43.12" x2="35.04" y2="43.12" />
      <path
        class="cls-2"
        d="M35,45.62h-.9a2.5,2.5,0,0,1,0-5H35a2.5,2.5,0,0,1,0,5Z"
      />
      <path
        class="cls-2"
        d="M60.07,74.82a13.56,13.56,0,0,1-7.58-2.33,13.79,13.79,0,0,1-4.88-16,.42.42,0,0,1,0-.1,18.17,18.17,0,0,1,2.44-4.26,17.74,17.74,0,0,1,1.4-1.61A2,2,0,0,1,52.7,50c.74-5.47,5.1-9.36,8-11a2,2,0,0,1,2.73,2.67,6.33,6.33,0,0,0-.72,3c0,3.29,2.92,5.42,3.49,5.81a16,16,0,0,1,3.1,3,14.21,14.21,0,0,1,3.19,7.57A12.41,12.41,0,0,1,60.07,74.82Zm-8.7-16.95a9.78,9.78,0,0,0,3.37,11.31,9.29,9.29,0,0,0,9.29.71,8.93,8.93,0,0,0,4.52-8.51,10.42,10.42,0,0,0-2.37-5.45,12.15,12.15,0,0,0-2.28-2.25c-.72-.49-4.48-3.3-5.07-7.91a8.88,8.88,0,0,0-1.54,9.31,2,2,0,0,1-.43,2.13,2,2,0,0,1-2.12.48,5.09,5.09,0,0,1-2.27-1.95A14.3,14.3,0,0,0,51.37,57.87Z"
      />
      <path
        class="cls-1"
        d="M32.11,65.21H2A2,2,0,0,1,.45,62L16.31,42.34a2,2,0,0,1,3.11,2.52L6.19,61.21H32.11a2,2,0,0,1,0,4Z"
      />
      <path
        class="cls-1"
        d="M27.69,45.14H6.24A2,2,0,0,1,4.7,41.86L21.79,21.1a2,2,0,0,1,3.09,2.54l-14.4,17.5H27.69a2,2,0,0,1,0,4Z"
      />
      <path
        class="cls-1"
        d="M26.65,24.37H11.48A2,2,0,0,1,10,21L29.92.6a2,2,0,0,1,2.87,2.8l-16.57,17H26.65a2,2,0,0,1,0,4Z"
      />
      <path
        class="cls-1"
        d="M46.93,33.69A2,2,0,0,1,45.37,33l-7.55-9.32a2,2,0,0,1,1.56-3.26h7.11L29.92,3.4A2,2,0,0,1,32.79.6L52.67,21a2,2,0,0,1-1.44,3.39H43.57l4.91,6.06a2,2,0,0,1-1.55,3.26Z"
      />
      <path
        class="cls-1"
        d="M37.22,83H22.11a2,2,0,0,1-1.52-.69,2,2,0,0,1-.46-1.6l2.56-17.39a2,2,0,1,1,3.95.58L24.42,79H35L34.43,75a2,2,0,0,1,4-.5l.81,6.33a2,2,0,0,1-2,2.25Z"
      />
      <line class="cls-2" x1="32.31" y1="22.36" x2="33.01" y2="22.36" />
      <path
        class="cls-2"
        d="M33,24.86h-.7a2.5,2.5,0,0,1,0-5H33a2.5,2.5,0,0,1,0,5Z"
      />
    </g>
  </g>
</svg>
