<svg xmlns="http://www.w3.org/2000/svg" viewBox="0 0 85.11 48.22"><defs><style
    >.cls-1{fill:#c7dd85; opacity: 1;}.cls-2{fill:#004634; opacity: 1;}</style></defs><g
    id="Layer_2"
    data-name="Layer 2"
  ><g id="Layer_10" data-name="Layer 10"><path
        class="cls-1"
        d="M37.47,43.07h0L17.69,43a2,2,0,1,1,0-4h0l16.87,0c-2.37-4.74-5.84-4.57-5.88-4.56a2,2,0,0,1-2.09-1.59,4.14,4.14,0,0,0-2.34-2.67,10.29,10.29,0,0,0-6.08-1.07,2,2,0,0,1-2.12-3.38c1.89-1.25,6.12-.77,9,.39a9.06,9.06,0,0,1,5,4.45c2.46.43,7.1,2.27,9.37,9.87a2,2,0,0,1-.31,1.76A2,2,0,0,1,37.47,43.07ZM18.25,29.13l0,0Z"
      /><path
        class="cls-1"
        d="M68.39,42.81h0l-16.51,0a2,2,0,0,1-2-2.32,9.49,9.49,0,0,1,9.14-8c1.52-2.32,5.11-6.23,9.88-6.61a2,2,0,1,1,.32,4c-3.71.3-6.8,4.48-7.18,5.35a2,2,0,0,1-2,1.3,5.3,5.3,0,0,0-5.22,2.33l13.59,0a2,2,0,0,1,0,4Z"
      /><path
        class="cls-2"
        d="M15.2,47.7H2a2,2,0,0,1-2-2V2A2,2,0,0,1,2,0H15.2a2,2,0,0,1,2,2V45.7A2,2,0,0,1,15.2,47.7ZM4,43.7h9.2V4H4Z"
      /><path
        class="cls-2"
        d="M83.11,48.22H69.45a2,2,0,0,1-2-2v-44a2,2,0,0,1,2-2H83.11a2,2,0,0,1,2,2v44A2,2,0,0,1,83.11,48.22Zm-11.66-4h9.66v-40H71.45Z"
      /><polygon
        class="cls-2"
        points="71.33 42.9 44.66 42.9 44.66 38.9 67.33 38.9 67.33 10.36 17.31 10.36 17.31 38.9 41.59 38.9 41.59 42.9 13.31 42.9 13.31 6.36 71.33 6.36 71.33 42.9"
      /><path
        class="cls-2"
        d="M40.27,41.81h-.1a1,1,0,0,1-.89-1.1l.81-8.08-1.44-3.49a1,1,0,0,1,.11-1l3.35-4.7.42-5.64a1,1,0,0,1,1.9-.36l3.18,6.69a1,1,0,0,1,0,.93l-2.41,4.12L46,32a.58.58,0,0,1,0,.19l.84,8.26a1,1,0,0,1-2,.2l-.83-8.16-1-3.08a1,1,0,0,1,.09-.8l2.36-4-1.33-2.8-.16,2.16a.92.92,0,0,1-.18.5l-3.19,4.48L42,32.1a1.12,1.12,0,0,1,.07.48l-.84,8.33A1,1,0,0,1,40.27,41.81Z"
      /><path
        class="cls-1"
        d="M20.56,33.43a1,1,0,0,1-1-1,1,1,0,0,1,1-1h0a1,1,0,0,1,1,1A1,1,0,0,1,20.56,33.43Z"
      /><path
        class="cls-1"
        d="M30.07,37.2h0a.5.5,0,0,1-.51-.5.49.49,0,0,1,.49-.5.51.51,0,0,1,.52.5A.49.49,0,0,1,30.07,37.2Z"
      /><path
        class="cls-1"
        d="M65,36.39a1,1,0,0,1-1-1,1,1,0,0,1,1-1h0a1,1,0,0,1,1,1A1,1,0,0,1,65,36.39Z"
      /></g></g></svg>
