<svg xmlns="http://www.w3.org/2000/svg" viewBox="0 0 82.86 67.24"><defs><style
    >.cls-1{fill:#c7dd86; opacity: 1;}.cls-2{fill:#014735; opacity: 1;}</style></defs><g
    id="Layer_2"
    data-name="Layer 2"
  ><g id="Layer_11" data-name="Layer 11"><path
        class="cls-1"
        d="M79.86,67.24H3A3,3,0,0,1,.41,62.73L36.17,1.49A3,3,0,0,1,38.66,0a3,3,0,0,1,2.59,1.33l41.1,61.24a3,3,0,0,1-2.49,4.67Zm-71.63-6h66L38.93,8.65Z"
      /><path
        class="cls-2"
        d="M38.89,46.55a3,3,0,0,1-3-3v-21a3,3,0,0,1,6,0v21A3,3,0,0,1,38.89,46.55Z"
      /><path
        class="cls-2"
        d="M39,56a3,3,0,0,1-3-3v-.18a3,3,0,0,1,6,0V53A3,3,0,0,1,39,56Z"
      /></g></g></svg>
