<svg xmlns="http://www.w3.org/2000/svg" viewBox="0 0 60.29 85.16"><defs><style
    >.cls-1{opacity:0.28; opacity: 1;}.cls-2{fill:#004634; opacity: 1;}.cls-3{fill:#014735; opacity: 1;}.cls-4{fill:#c7dd85; opacity: 1;}</style></defs><g
    id="Layer_2"
    data-name="Layer 2"
  ><g id="Layer_6" data-name="Layer 6"><path
        class="cls-2"
        d="M58.29,49.65a2,2,0,0,1-.42,0,78.86,78.86,0,0,0-19-1.77,93.43,93.43,0,0,0-9.53.85,80.81,80.81,0,0,1-12.86.86A80.36,80.36,0,0,1,1.59,47.9,2,2,0,0,1,2.41,44a76.36,76.36,0,0,0,14.15,1.57,76.4,76.4,0,0,0,12.29-.83,97.84,97.84,0,0,1,9.91-.88,83.28,83.28,0,0,1,20,1.86,2,2,0,0,1-.42,3.95Z"
      /><path
        class="cls-3"
        d="M24.54,85.16a2,2,0,0,1-1.71-3l5.5-9.21L31,56.7l-5.24-3.32a2,2,0,0,1-.91-1.93l.5-4.23a2,2,0,0,1,4,.47l-.36,3L34.24,54a2,2,0,0,1,.9,2L32.22,74a2,2,0,0,1-.26.71l-5.7,9.53A2,2,0,0,1,24.54,85.16Z"
      /><path
        class="cls-3"
        d="M40.79,79.71a2.1,2.1,0,0,1-.7-.12l-9.33-3.48a2,2,0,1,1,1.39-3.75l9.33,3.48a2,2,0,0,1-.69,3.87Z"
      /><path
        class="cls-2"
        d="M14.61,55.2a2,2,0,0,1-1.4-3.43l4.44-4.34a2,2,0,0,1,2.8,2.86L16,54.63A2,2,0,0,1,14.61,55.2Z"
      /><path
        class="cls-2"
        d="M19,75.38a2,2,0,0,1-2-1.6l-1.93-9.43L4.74,59.23a2,2,0,0,1-1-2.44l1.78-5.17-1-2.75a2,2,0,0,1,3.74-1.43l1.31,3.43a2,2,0,0,1,0,1.37L8.1,56.43l9.62,4.77a2,2,0,0,1,1.07,1.39L20.91,73a2,2,0,0,1-1.56,2.36A2.85,2.85,0,0,1,19,75.38Z"
      /><path
        class="cls-2"
        d="M4.62,68.22A2,2,0,0,1,3,65l4.64-6.15a2,2,0,0,1,3.19,2.41L6.22,67.42A2,2,0,0,1,4.62,68.22Z"
      /><path
        class="cls-3"
        d="M46.74,60.85a2,2,0,0,1-1.53-.71l-4.69-5.55A2,2,0,0,1,40.07,53l.91-6a2,2,0,1,1,4,.6l-.77,5.06,4.1,4.85a2,2,0,0,1-1.52,3.29Z"
      /><path
        class="cls-3"
        d="M46.84,72.25A2,2,0,0,1,45.32,69l9.9-11.56L53.4,48.67a2,2,0,1,1,3.92-.82l2,9.69a2,2,0,0,1-.44,1.7L48.36,71.55A2,2,0,0,1,46.84,72.25Z"
      /><path
        class="cls-3"
        d="M53,73.76a2,2,0,0,1-1.34-.51l-4-3.63a2,2,0,1,1,2.68-3l4,3.63A2,2,0,0,1,53,73.76Z"
      /><path
        class="cls-3"
        d="M26.21,66a2,2,0,0,1-.71-3.87l5-1.92A2,2,0,1,1,32,64l-5,1.92A2.17,2.17,0,0,1,26.21,66Z"
      /><path
        class="cls-4"
        d="M34.19,33.52c-.45,0-.89,0-1.34-.05A2,2,0,0,1,31,31.3a15.4,15.4,0,0,1,16.67-14,2,2,0,0,1,1.82,2.16,15.41,15.41,0,0,1-15.33,14.1Zm11-12.25a11.44,11.44,0,0,0-9.73,8.19,11.44,11.44,0,0,0,9.73-8.19Z"
      /><path
        class="cls-3"
        d="M40.79,65.9a1.91,1.91,0,0,1-.81-.18,2,2,0,0,1-1-2.64L42.08,56a2,2,0,0,1,3.66,1.62L42.61,64.7A2,2,0,0,1,40.79,65.9Z"
      /><path
        class="cls-3"
        d="M12,76a2,2,0,0,1-1.24-.43,2,2,0,0,1-.33-2.81l4.94-6.25A2,2,0,0,1,18.5,69l-4.94,6.25A2,2,0,0,1,12,76Z"
      /><path
        class="cls-3"
        d="M29.94,48.65a2,2,0,0,1-2-2V15.92a2,2,0,0,1,2-2h0a2,2,0,0,1,2,2c0,5.84,0,14.74,0,15.29h0V46.65A2,2,0,0,1,29.94,48.65Z"
      /><path
        class="cls-4"
        d="M30.75,17c-.44,0-.89,0-1.34-.06a2,2,0,0,1-1.82-2.16A15.43,15.43,0,0,1,44.26.7a2,2,0,0,1,1.83,2.16,15.3,15.3,0,0,1-5.43,10.47A15.28,15.28,0,0,1,30.75,17Zm11-12.25A11.43,11.43,0,0,0,32,12.89a11.32,11.32,0,0,0,6.1-2.61A11.34,11.34,0,0,0,41.7,4.71Z"
      /><path
        class="cls-4"
        d="M29.46,16.93A15.31,15.31,0,0,1,19,12.81,15.28,15.28,0,0,1,14.07,2.08,2,2,0,0,1,16,0,15.43,15.43,0,0,1,32,14.85,2,2,0,0,1,30,16.92ZM18.36,4.14a11.46,11.46,0,0,0,9.31,8.65,11.42,11.42,0,0,0-9.31-8.65Z"
      /></g></g></svg>
