<svg xmlns="http://www.w3.org/2000/svg" viewBox="0 0 74.42 84.61"><defs><style
    >.cls-1{fill:#014735; opacity: 1;}.cls-2{fill:#c7dd86; opacity: 1;}</style></defs><g
    id="Layer_2"
    data-name="Layer 2"
  ><g id="Layer_1-2" data-name="Layer 1"><path
        class="cls-1"
        d="M14.9,46.32a5,5,0,0,1-.94-.09,4.84,4.84,0,0,1-1.77-8.78L17.3,34,18,35.64a2.49,2.49,0,0,0,.16.33c1.15,2,2.18,3.87,3.06,5.61l.56,1.13L17.59,45.5A4.83,4.83,0,0,1,14.9,46.32Zm1.24-8.08-2.36,1.58a2,2,0,0,0-.84,1.27,2,2,0,0,0,.3,1.49,2,2,0,0,0,1.27.85,2,2,0,0,0,1.49-.3l2.06-1.39C17.47,40.62,16.83,39.45,16.14,38.24Z"
      /><path
        class="cls-1"
        d="M14.9,46.83a5.17,5.17,0,0,1-1-.11A5.35,5.35,0,0,1,11.91,37l5.63-3.78.89,2.2a1.74,1.74,0,0,0,.14.27c1.15,2,2.19,3.88,3.07,5.64l.76,1.52-4.53,3A5.33,5.33,0,0,1,14.9,46.83Zm2.17-12-4.6,3.09a4.36,4.36,0,0,0-1.19,6,4.34,4.34,0,0,0,6,1.18l3.79-2.54-.36-.73c-.87-1.74-1.9-3.62-3-5.58a3,3,0,0,1-.2-.4ZM14.9,44a2.63,2.63,0,0,1-.49,0,2.49,2.49,0,0,1-2-2.93,2.43,2.43,0,0,1,1.05-1.58l2.81-1.89.27.47c.69,1.22,1.34,2.4,1.92,3.52l.21.4-2.43,1.63A2.47,2.47,0,0,1,14.9,44ZM16,39l-1.91,1.28a1.48,1.48,0,0,0-.4,2.06,1.46,1.46,0,0,0,.94.63,1.48,1.48,0,0,0,1.12-.22l1.68-1.13C17,40.73,16.48,39.86,16,39Z"
      /><path
        class="cls-1"
        d="M37.06,32.67l-.82-1c-1.14-1.43-2.39-3.09-3.73-5a2.92,2.92,0,0,0-.32-.38L31,25.08,66.36,1.32a4.86,4.86,0,0,1,6.73,1.33h0a4.85,4.85,0,0,1-1.32,6.72Zm-1.78-7c.83,1.15,1.63,2.22,2.38,3.19L70.17,7A2,2,0,0,0,71,5.73a2,2,0,0,0-.3-1.49h0A2,2,0,0,0,68,3.7Z"
      /><path
        class="cls-1"
        d="M37,33.35,35.84,32c-1.14-1.43-2.4-3.1-3.73-5a3,3,0,0,0-.27-.32L30.18,25,66.08.91a5.35,5.35,0,1,1,6,8.88Zm-5.19-8.19.79.8a3.19,3.19,0,0,1,.37.44c1.33,1.86,2.58,3.51,3.71,4.93l.53.67L71.49,9a4.35,4.35,0,0,0-4.85-7.22Zm5.79,4.35-.29-.37c-.76-1-1.56-2.06-2.39-3.21l-.31-.42L67.68,3.28A2.48,2.48,0,0,1,71.13,4a2.43,2.43,0,0,1,.38,1.87,2.47,2.47,0,0,1-1.06,1.59ZM36,25.76c.61.84,1.21,1.64,1.78,2.39L69.89,6.58a1.49,1.49,0,0,0,.41-2.06,1.49,1.49,0,0,0-1-.63,1.46,1.46,0,0,0-1.11.23Z"
      /><path
        class="cls-2"
        d="M25.11,51.93l-.5-2.82c2.26-.4,5.23-1.81,9.33-4.44,4.9-3.14,6.27-4.93,7.45-6.78l2.41,1.53c-1.61,2.55-3.42,4.52-8.32,7.65C31,50,27.79,51.45,25.11,51.93Z"
      /><path
        class="cls-1"
        d="M22.65,54.65a34.57,34.57,0,0,0-.7-4.76l2.79-.61a38.77,38.77,0,0,1,.77,5.15Z"
      /><path
        class="cls-1"
        d="M22.19,55.19l0-.5A33.56,33.56,0,0,0,21.46,50l-.11-.49,3.77-.83.11.49A38.21,38.21,0,0,1,26,54.39l0,.5Zm.36-4.91a35,35,0,0,1,.56,3.83L25,54a34.9,34.9,0,0,0-.61-4.08Z"
      /><path
        class="cls-1"
        d="M22,49.89a33.46,33.46,0,0,0-2.85-7.14c-.85-1.7-1.84-3.53-3-5.45a5.71,5.71,0,0,1-.35-.7A5.92,5.92,0,0,1,18,29.41l8.19-5.5a5.91,5.91,0,0,1,7.49.74,5.65,5.65,0,0,1,.62.74c1.3,1.82,2.52,3.44,3.63,4.83a32.49,32.49,0,0,0,5,5.33l-1.72,2.29A34.94,34.94,0,0,1,35.64,32c-1.13-1.42-2.39-3.09-3.72-4.95a3.05,3.05,0,0,0-4.18-.77l-8.2,5.5a3.07,3.07,0,0,0-1.11,3.73,2.91,2.91,0,0,0,.18.35c1.15,2,2.17,3.86,3.05,5.6a36.31,36.31,0,0,1,3.08,7.82Z"
      /><path
        class="cls-1"
        d="M21.57,50.49,21.46,50a33.21,33.21,0,0,0-2.81-7c-.84-1.68-1.83-3.51-2.95-5.42a5.91,5.91,0,0,1-.37-.76A6.4,6.4,0,0,1,17.67,29l8.19-5.5A6.42,6.42,0,0,1,34,24.3a7.35,7.35,0,0,1,.67.79c1.29,1.82,2.51,3.44,3.61,4.81a32,32,0,0,0,4.92,5.25l.4.3-2.32,3.1-.4-.31a34.82,34.82,0,0,1-5.62-5.93c-1.14-1.43-2.4-3.1-3.74-5a2.78,2.78,0,0,0-.26-.32A2.56,2.56,0,0,0,28,26.7l-8.2,5.5a2.55,2.55,0,0,0-.92,3.11,1.55,1.55,0,0,0,.14.29c1.16,2,2.19,3.88,3.07,5.64a36.07,36.07,0,0,1,3.12,7.93l.11.49Zm7.87-27.08a5.38,5.38,0,0,0-3,.92l-8.19,5.5a5.41,5.41,0,0,0-2,6.58,5.33,5.33,0,0,0,.32.63c1.13,1.94,2.13,3.78,3,5.48a36.63,36.63,0,0,1,2.77,6.78l1.81-.4a38.14,38.14,0,0,0-2.92-7.21c-.87-1.74-1.89-3.62-3-5.58a2.58,2.58,0,0,1-.2-.41,3.56,3.56,0,0,1,1.29-4.33l8.2-5.5a3.56,3.56,0,0,1,4.5.44,3.28,3.28,0,0,1,.37.45c1.33,1.85,2.57,3.51,3.71,4.93a37.84,37.84,0,0,0,5,5.44l1.11-1.49a37.18,37.18,0,0,1-4.71-5.11c-1.11-1.39-2.33-3-3.64-4.85a4.58,4.58,0,0,0-.57-.67A5.35,5.35,0,0,0,29.44,23.41Z"
      /><path
        class="cls-1"
        d="M32.73,55.77l-1.11-2.63A36.26,36.26,0,0,0,47,40.81a18.61,18.61,0,0,1-5.82-3l1.72-2.29a17.13,17.13,0,0,0,6.24,2.91,1.86,1.86,0,0,1,1.22,1.13,1.83,1.83,0,0,1-.19,1.64A39.16,39.16,0,0,1,38.58,52.69,37.94,37.94,0,0,1,32.73,55.77Z"
      /><path
        class="cls-1"
        d="M32.46,56.43,31,52.87l.46-.2a34.5,34.5,0,0,0,5.35-2.81,35.93,35.93,0,0,0,9.41-8.79,18.54,18.54,0,0,1-5.31-2.83l-.4-.3,2.32-3.09.4.3A16.46,16.46,0,0,0,49.27,38a2.39,2.39,0,0,1,1.55,1.44,2.33,2.33,0,0,1-.24,2.1A39.29,39.29,0,0,1,32.92,56.24Zm-.18-3L33,55.11a39.2,39.2,0,0,0,5.31-2.84A38.87,38.87,0,0,0,49.74,41a1.34,1.34,0,0,0,.13-1.2,1.31,1.31,0,0,0-.88-.82,17.65,17.65,0,0,1-6-2.69l-1.11,1.49a17.85,17.85,0,0,0,5.26,2.59l.66.2-.4.57a37.06,37.06,0,0,1-10.09,9.61A36.78,36.78,0,0,1,32.28,53.4Z"
      /><path
        class="cls-2"
        d="M18.32,64.47h0a1.31,1.31,0,0,1-.9-1.55q.16-.66.27-1.32A25.83,25.83,0,0,0,18,56v-.18a1.3,1.3,0,0,1,1.31-1.34h0a1.32,1.32,0,0,1,1.32,1.29v.17a28.64,28.64,0,0,1-.37,6.14c-.09.49-.19,1-.3,1.46A1.32,1.32,0,0,1,18.32,64.47Z"
      /><path
        class="cls-2"
        d="M18.7,64.69a1.59,1.59,0,0,1-.43-.06h0a1.47,1.47,0,0,1-1-1.75c.1-.43.19-.88.27-1.31a26.05,26.05,0,0,0,.33-5.6v-.18a1.48,1.48,0,0,1,.42-1.07,1.49,1.49,0,0,1,2.55,1v.17a28.45,28.45,0,0,1-.38,6.18q-.12.73-.3,1.47a1.48,1.48,0,0,1-1.44,1.14Zm.63-10.08a1.16,1.16,0,0,0-1.15,1.18V56a26.83,26.83,0,0,1-.34,5.67c-.08.44-.17.89-.28,1.33a1.15,1.15,0,0,0,.79,1.35h0a1.14,1.14,0,0,0,.9-.11,1.11,1.11,0,0,0,.54-.73c.12-.48.22-1,.3-1.45a28.32,28.32,0,0,0,.37-6.11v-.17A1.16,1.16,0,0,0,19.33,54.61Z"
      /><path
        class="cls-2"
        d="M23.88,68.15a1.59,1.59,0,0,1-.56-.11,1.45,1.45,0,0,1-.76-1.88c1.17-2.77,1.13-4.76,1.05-7.76,0-.81,0-1.65,0-2.59a1.43,1.43,0,0,1,2.86,0c0,.91,0,1.73,0,2.52.08,3.13.14,5.6-1.27,8.94A1.43,1.43,0,0,1,23.88,68.15Z"
      /><path
        class="cls-2"
        d="M23.88,68.32a1.68,1.68,0,0,1-.62-.13,1.6,1.6,0,0,1-.85-2.09c1.16-2.75,1.11-4.71,1-7.69,0-.81,0-1.65,0-2.6a1.6,1.6,0,1,1,3.19,0c0,.91,0,1.73,0,2.52.08,3.15.14,5.63-1.29,9A1.6,1.6,0,0,1,23.88,68.32ZM25,54.55a1.26,1.26,0,0,0-1.26,1.26c0,.95,0,1.78,0,2.59.07,3,.12,5-1.06,7.83a1.23,1.23,0,0,0,0,1,1.24,1.24,0,0,0,.68.69,1.16,1.16,0,0,0,.49.1A1.25,1.25,0,0,0,25,67.21c1.4-3.31,1.34-5.76,1.26-8.87,0-.79,0-1.61,0-2.53A1.26,1.26,0,0,0,25,54.55Z"
      /><path
        class="cls-2"
        d="M40.44,66.65A1.42,1.42,0,0,1,39,65.49c-.11-.56-.18-1-.25-1.44a52.27,52.27,0,0,1-.66-8.25,1.43,1.43,0,0,1,1.43-1.42h0A1.41,1.41,0,0,1,41,55.81a49.36,49.36,0,0,0,.63,7.83c.06.39.13.8.23,1.32a1.44,1.44,0,0,1-1.15,1.67A1.14,1.14,0,0,1,40.44,66.65Z"
      /><path
        class="cls-1"
        d="M22.06,84.1a23.56,23.56,0,0,1-4.68-.41,11.68,11.68,0,0,1-3.54-1.48,19.07,19.07,0,0,1-7.16.73,19.5,19.5,0,0,1-4.76-1A2.16,2.16,0,0,1,.56,80.36a2.14,2.14,0,0,1,.53-2L5.25,74a22.49,22.49,0,0,0,6.09-16.21,4.55,4.55,0,0,1,4.55-4.74H44.63a4.58,4.58,0,0,1,4.55,4.72l0,1.12A20.41,20.41,0,0,0,55.5,74.45l4,3.79a1.92,1.92,0,0,1-.75,3.21,23.36,23.36,0,0,1-10.93.39c-7.18,3-12.41,1.45-14,.81A57.52,57.52,0,0,1,22.06,84.1Zm-7.9-5,.86.49A10.13,10.13,0,0,0,18,80.89c2.49.5,7.24.72,15.71-1.14l.5-.11.46.24c.19.1,5.06,2.45,12.48-.84l.45-.2L48,79a21.41,21.41,0,0,0,8.24.16l-2.74-2.6a23.27,23.27,0,0,1-7.25-17.73l0-1.12a1.69,1.69,0,0,0-.47-1.24,1.72,1.72,0,0,0-1.22-.52H15.89a1.69,1.69,0,0,0-1.22.52,1.7,1.7,0,0,0-.48,1.24A25.33,25.33,0,0,1,7.32,76L3.94,79.53a16.08,16.08,0,0,0,9.61-.23Z"
      /><path
        class="cls-1"
        d="M22.05,84.61a24.41,24.41,0,0,1-4.77-.43,11.74,11.74,0,0,1-3.51-1.43,19.48,19.48,0,0,1-12-.39A2.65,2.65,0,0,1,.73,78l4.15-4.39a21.92,21.92,0,0,0,6-15.84,5.06,5.06,0,0,1,5.06-5.26H44.63a5.06,5.06,0,0,1,5,5.24l0,1.12a19.89,19.89,0,0,0,6.2,15.17l4,3.79a2.42,2.42,0,0,1-.94,4.06,23.47,23.47,0,0,1-11,.43c-7.12,3-12.43,1.45-14.1.81a58.26,58.26,0,0,1-11.71,1.44h0Zm-8.15-3,.19.11a11.17,11.17,0,0,0,3.39,1.43,24.06,24.06,0,0,0,4.57.4h0a57.43,57.43,0,0,0,11.65-1.45l.15,0,.14.06c1.41.57,6.56,2.18,13.62-.8l.15-.06.15,0A23,23,0,0,0,58.6,81a1.41,1.41,0,0,0,.95-1,1.4,1.4,0,0,0-.4-1.34l-4-3.79a20.9,20.9,0,0,1-6.51-15.94l0-1.11a4.07,4.07,0,0,0-4-4.2H15.89a4,4,0,0,0-4.05,4.21A23,23,0,0,1,5.61,74.34L1.46,78.73a1.64,1.64,0,0,0,.63,2.68,18.44,18.44,0,0,0,11.6.32Zm8.14.08a21.56,21.56,0,0,1-4.19-.36A10.39,10.39,0,0,1,14.77,80l-.67-.38-.39.13a16.66,16.66,0,0,1-6.82.81A16.32,16.32,0,0,1,3.8,80L3,79.79l4-4.18a24.81,24.81,0,0,0,6.73-17.92,2.19,2.19,0,0,1,2.2-2.28H44.63a2.19,2.19,0,0,1,1.58.67,2.16,2.16,0,0,1,.61,1.61l0,1.12a22.79,22.79,0,0,0,7.1,17.35l3.45,3.27-1,.18a21.85,21.85,0,0,1-8.47-.16l-.3-.08-.3.13c-7.62,3.38-12.69.94-12.91.83l-.3-.16-.32.08A56.32,56.32,0,0,1,22,81.74Zm-7.83-3.19,1.06.61a9.42,9.42,0,0,0,2.78,1.23c2.44.5,7.12.71,15.5-1.13l.68-.15.62.32c.19.1,4.85,2.34,12-.85l.62-.28.65.17a20.85,20.85,0,0,0,7,.31l-2-1.89a23.79,23.79,0,0,1-7.4-18.12l0-1.12a1.2,1.2,0,0,0-.34-.87,1.18,1.18,0,0,0-.85-.36H15.89a1.19,1.19,0,0,0-.86.36,1.16,1.16,0,0,0-.33.88,25.87,25.87,0,0,1-7,18.65l-2.79,3A14.53,14.53,0,0,0,7,79.59a15.72,15.72,0,0,0,6.41-.77Z"
      /><path
        class="cls-1"
        d="M32.53,81.7A17.73,17.73,0,0,1,28.32,75a1.32,1.32,0,0,1,.92-1.73h0a1.31,1.31,0,0,1,1.55.82,15.19,15.19,0,0,0,3.53,5.65,1.32,1.32,0,0,1,.18,1.75h0A1.32,1.32,0,0,1,32.53,81.7Z"
      /><path
        class="cls-1"
        d="M33.44,82.56a1.85,1.85,0,0,1-1.25-.49h0a18.33,18.33,0,0,1-4.34-6.87,1.8,1.8,0,0,1,.1-1.47,1.82,1.82,0,0,1,1.16-.92A1.84,1.84,0,0,1,31.27,74a14.7,14.7,0,0,0,3.4,5.45,1.85,1.85,0,0,1,.24,2.42,1.81,1.81,0,0,1-1.31.73Zm-3.88-8.8-.2,0a.82.82,0,0,0-.57,1.07,17.29,17.29,0,0,0,4.09,6.47h0a.81.81,0,0,0,1.21-.11A.83.83,0,0,0,34,80.14a15.84,15.84,0,0,1-3.66-5.84A.81.81,0,0,0,29.56,73.76Z"
      /><path
        class="cls-1"
        d="M12.37,80.9h0a1.31,1.31,0,0,1,.69-1.58,14.12,14.12,0,0,0,6.42-6.08,1.31,1.31,0,0,1,1.67-.62h0a1.32,1.32,0,0,1,.67,1.83,16.55,16.55,0,0,1-7.64,7.25A1.31,1.31,0,0,1,12.37,80.9Z"
      /><path
        class="cls-1"
        d="M13.63,82a1.58,1.58,0,0,1-.6-.13,1.5,1.5,0,0,1-.82-.92h0A1.49,1.49,0,0,1,13,79.16a13.89,13.89,0,0,0,6.34-6,1.48,1.48,0,0,1,1.88-.7,1.47,1.47,0,0,1,.83.86A1.5,1.5,0,0,1,22,74.53a16.73,16.73,0,0,1-7.71,7.32A1.42,1.42,0,0,1,13.63,82Zm7-9.31a1.16,1.16,0,0,0-1,.63,14.36,14.36,0,0,1-6.5,6.15,1.15,1.15,0,0,0-.6,1.38h0a1.13,1.13,0,0,0,.64.71,1.1,1.1,0,0,0,.94,0,16.43,16.43,0,0,0,7.56-7.17,1.19,1.19,0,0,0,.06-.94,1.1,1.1,0,0,0-.65-.67A1.06,1.06,0,0,0,20.65,72.69Z"
      /><path class="cls-1" d="M46.52,79.89a12.79,12.79,0,0,1-7.37-8.39" /><path
        class="cls-1"
        d="M46.52,81.73a1.8,1.8,0,0,1-.6-.1A14.63,14.63,0,0,1,37.38,72a1.84,1.84,0,1,1,3.53-1,11,11,0,0,0,6.22,7.17,1.84,1.84,0,0,1-.61,3.58Z"
      /></g></g></svg>
