<svg xmlns="http://www.w3.org/2000/svg" viewBox="0 0 83.87 79.96"><defs><style
    >.cls-1{fill:#014735; opacity: 1;}.cls-2{fill:#c7dd86; opacity: 1;}.cls-3{fill:#c7dd85; opacity: 1;}</style></defs><g
    id="Layer_2"
    data-name="Layer 2"
  ><g id="Layer_7" data-name="Layer 7"><path
        class="cls-1"
        d="M68.4,53.21a22.66,22.66,0,0,1-5.54-.72A30.09,30.09,0,0,1,54.72,49c-7.3,4.75-13.9,4.33-18.21,3.09a22.91,22.91,0,0,1-7-3.39c-7.48,5.2-14.06,4.84-18.33,3.58a23.62,23.62,0,0,1-8.82-5.5,1.41,1.41,0,0,1,0-2,1.5,1.5,0,0,1,2.08,0c.43.42,11.19,10.76,24.2,1a1.49,1.49,0,0,1,1.89.07c.43.38,10.64,9.15,23.31.27a1.5,1.5,0,0,1,1.74,0,26.64,26.64,0,0,0,8.11,3.59c6,1.5,12.77-.86,17-4.8a1.5,1.5,0,0,1,2.08,0,1.42,1.42,0,0,1,0,2C79.11,50.37,73.21,53.21,68.4,53.21Z"
      /><path
        class="cls-1"
        d="M68.4,53.58a22.79,22.79,0,0,1-5.63-.73,30.21,30.21,0,0,1-8.05-3.38c-7.36,4.71-14,4.24-18.31,3a23.38,23.38,0,0,1-6.91-3.29C22,54.34,15.32,53.93,11.06,52.67a24,24,0,0,1-9-5.58,1.83,1.83,0,0,1-.55-1.3,1.77,1.77,0,0,1,.55-1.28,1.87,1.87,0,0,1,2.6,0c1.12,1.09,11.28,10.3,23.71,1a1.87,1.87,0,0,1,2.37.09c.42.37,10.41,9,22.85.24a1.86,1.86,0,0,1,2.16,0,26.14,26.14,0,0,0,8,3.54c5.48,1.36,12.17-.54,16.65-4.72a1.89,1.89,0,0,1,2.61.06A1.8,1.8,0,0,1,83.56,46,1.76,1.76,0,0,1,83,47.27C79,51,73,53.58,68.4,53.58Zm-13.69-5,.2.13a29.43,29.43,0,0,0,8,3.41,22.36,22.36,0,0,0,5.45.71c4.43,0,10.22-2.51,14.07-6.11a1,1,0,0,0,.34-.74,1.08,1.08,0,0,0-.31-.75,1.13,1.13,0,0,0-1.56,0c-4.65,4.35-11.62,6.32-17.34,4.9a26.87,26.87,0,0,1-8.24-3.66,1.11,1.11,0,0,0-1.3,0c-12.92,9.05-23.34.09-23.78-.3a1.13,1.13,0,0,0-1.42,0C15.71,56,4.65,45.5,4.18,45.05a1.12,1.12,0,0,0-1.56,0,1,1,0,0,0-.32.74,1.06,1.06,0,0,0,.31.75A23,23,0,0,0,11.28,52c4.13,1.22,10.62,1.61,18-3.52l.22-.16.21.16a22.72,22.72,0,0,0,6.9,3.33c4.18,1.2,10.69,1.64,17.89-3Z"
      /><path
        class="cls-1"
        d="M67.76,79.59a22.6,22.6,0,0,1-5.54-.72,30,30,0,0,1-8.15-3.46c-7.3,4.75-13.89,4.33-18.2,3.09a22.67,22.67,0,0,1-7-3.39C21.38,80.31,14.8,80,10.52,78.69a23.54,23.54,0,0,1-8.81-5.5,1.41,1.41,0,0,1,0-2,1.51,1.51,0,0,1,2.09,0c.42.42,11.18,10.76,24.19,1a1.49,1.49,0,0,1,1.89.07c.43.38,10.65,9.15,23.31.27a1.5,1.5,0,0,1,1.74,0A26.64,26.64,0,0,0,63,76.11c6,1.5,12.78-.86,17-4.8a1.5,1.5,0,0,1,2.08,0,1.4,1.4,0,0,1,0,2C78.47,76.75,72.56,79.59,67.76,79.59Z"
      /><path
        class="cls-1"
        d="M67.76,80a22.87,22.87,0,0,1-5.64-.73,30.12,30.12,0,0,1-8-3.38c-7.37,4.71-14,4.24-18.32,3a23.38,23.38,0,0,1-6.91-3.29c-7.54,5.15-14.18,4.74-18.43,3.48a23.65,23.65,0,0,1-9-5.58,1.8,1.8,0,0,1-.56-1.3,1.77,1.77,0,0,1,.55-1.28,1.88,1.88,0,0,1,2.61,0c1.11,1.09,11.27,10.3,23.71,1a1.87,1.87,0,0,1,2.36.09c.42.37,10.41,9,22.85.24a1.88,1.88,0,0,1,2.17,0,26,26,0,0,0,8,3.54c5.49,1.36,12.18-.54,16.65-4.72a1.88,1.88,0,0,1,2.61.06,1.78,1.78,0,0,1,0,2.56C78.36,77.37,72.36,80,67.76,80Zm-13.7-5,.21.13a29.29,29.29,0,0,0,8,3.41,22.29,22.29,0,0,0,5.45.71c4.43,0,10.21-2.51,14.07-6.11a1,1,0,0,0,0-1.49,1.13,1.13,0,0,0-1.56,0C75.64,75.93,68.67,77.9,63,76.48a27,27,0,0,1-8.24-3.66,1.13,1.13,0,0,0-1.3,0c-12.91,9.06-23.34.1-23.77-.29a1.13,1.13,0,0,0-1.42,0c-13.16,9.86-24.22-.59-24.68-1a1.14,1.14,0,0,0-1.57,0,1,1,0,0,0-.32.74,1,1,0,0,0,.32.75,22.93,22.93,0,0,0,8.66,5.41c4.14,1.22,10.62,1.61,18-3.52l.22-.16.22.16A22.63,22.63,0,0,0,36,78.14c4.19,1.2,10.69,1.65,17.9-3Z"
      /><path
        class="cls-1"
        d="M29.06,65.83A17.41,17.41,0,0,1,23.61,65a16.62,16.62,0,0,1-7.13-4.51,1.43,1.43,0,1,1,2.18-1.85c.35.4,8.52,9.61,22.71,0a1.42,1.42,0,0,1,1.76.13c.41.36,10.21,8.89,22.53-.1A1.44,1.44,0,0,1,67.35,61c-7.42,5.41-14.12,5.11-18.44,3.91a21.65,21.65,0,0,1-6.82-3.3C37,64.8,32.62,65.83,29.06,65.83Z"
      /><path
        class="cls-1"
        d="M29.06,66.21a17.93,17.93,0,0,1-5.57-.87,17.3,17.3,0,0,1-7.3-4.62A1.81,1.81,0,0,1,19,58.37c.33.39,8.3,9.36,22.2-.06a1.82,1.82,0,0,1,2.23.16c.4.36,10,8.69,22.06-.12A1.79,1.79,0,0,1,66.78,58a1.81,1.81,0,0,1,.79,3.25c-7.54,5.5-14.36,5.19-18.76,4A22,22,0,0,1,42.08,62,24.66,24.66,0,0,1,29.06,66.21ZM17.57,58.49a1,1,0,0,0-.68.25,1.06,1.06,0,0,0-.13,1.49,16.4,16.4,0,0,0,7,4.39,16.94,16.94,0,0,0,5.33.84,24,24,0,0,0,12.83-4.2l.22-.14.2.16A21.31,21.31,0,0,0,49,64.51C53.25,65.7,59.83,66,67.13,60.67a1.07,1.07,0,0,0,.23-1.48,1.08,1.08,0,0,0-.69-.43,1.11,1.11,0,0,0-.79.19c-12.56,9.17-22.58.45-23,.08a1.06,1.06,0,0,0-1.3-.1c-14.46,9.79-22.85.34-23.2-.07A1.08,1.08,0,0,0,17.57,58.49Z"
      /><path
        class="cls-1"
        d="M17.89,52.31a1.59,1.59,0,0,1-1.47-1c-.15-.36-3.68-8.91-4.76-13.72-.95-4.24,1.34-8.16,2.48-9.77L8.71,13.15a1.59,1.59,0,0,1,.88-2l5.28-2.2a1.62,1.62,0,0,1,1.24,0,1.6,1.6,0,0,1,.85.9l5.37,14.34c2.13.23,6.56,1.24,8.35,5.77,2,4.95,6.18,17.82,6.36,18.37a1.59,1.59,0,0,1-3,1c0-.13-4.38-13.33-6.3-18.19-1.52-3.85-6.28-3.82-6.48-3.82a1.58,1.58,0,0,1-1.52-1L14.57,12.51l-2.35,1,5.2,14.07a1.59,1.59,0,0,1-.28,1.58s-3.24,3.92-2.37,7.79c1,4.53,4.55,13.11,4.59,13.19a1.6,1.6,0,0,1-.86,2.08A1.66,1.66,0,0,1,17.89,52.31Z"
      /><path
        class="cls-1"
        d="M17.89,52.56a1.83,1.83,0,0,1-1.7-1.13c-.15-.37-3.7-9-4.77-13.76-1-4.28,1.32-8.25,2.44-9.87L8.47,13.24a1.85,1.85,0,0,1,1-2.34l5.28-2.2A1.83,1.83,0,0,1,17.2,9.76L22.51,24c2,.24,6.58,1.29,8.4,5.91,1.95,4.93,6.19,17.83,6.37,18.38a1.84,1.84,0,0,1-2.58,2.22,1.79,1.79,0,0,1-.91-1.07c-.76-2.29-4.53-13.7-6.3-18.18-1.48-3.75-6.2-3.66-6.24-3.66a1.87,1.87,0,0,1-1.77-1.19L14.42,12.84l-1.88.78,5.11,13.84a1.84,1.84,0,0,1-.32,1.83S14.17,33.12,15,36.86c1,4.53,4.54,13.07,4.58,13.16a1.84,1.84,0,0,1-1,2.4A1.68,1.68,0,0,1,17.89,52.56ZM15.48,9.06a1.55,1.55,0,0,0-.52.1l-5.28,2.2a1.34,1.34,0,0,0-.74,1.7l5.48,14.81-.08.11c-1,1.49-3.37,5.39-2.43,9.58C13,42.33,16.5,50.88,16.65,51.24A1.37,1.37,0,0,0,18.4,52a1.35,1.35,0,0,0,.73-1.75c0-.09-3.59-8.67-4.61-13.24-.9-4,2.4-8,2.43-8a1.37,1.37,0,0,0,.24-1.33L11.9,13.34l2.81-1.17,5.24,14a1.36,1.36,0,0,0,1.28.87c.06,0,5.12-.1,6.72,4,1.78,4.49,5.55,15.91,6.29,18.15a1.38,1.38,0,0,0,.69.83,1.34,1.34,0,0,0,1.88-1.62C36.63,47.85,32.39,35,30.44,30c-1.7-4.32-5.83-5.37-8.13-5.61h-.16l0-.15L16.73,9.93A1.38,1.38,0,0,0,16,9.17,1.4,1.4,0,0,0,15.48,9.06Z"
      /><path
        class="cls-1"
        d="M13.06,19.88a1.59,1.59,0,0,1-.52-3.1l4.24-1.47a1.59,1.59,0,1,1,1,3l-4.25,1.47A1.54,1.54,0,0,1,13.06,19.88Z"
      /><path
        class="cls-1"
        d="M13.06,20.13a1.84,1.84,0,0,1-.6-3.58l4.24-1.47a1.77,1.77,0,0,1,1.41.08A1.82,1.82,0,0,1,19,16.21a1.84,1.84,0,0,1-1.13,2.35L13.67,20A1.81,1.81,0,0,1,13.06,20.13Zm4.25-4.66a1.32,1.32,0,0,0-.44.08L12.62,17a1.35,1.35,0,0,0-.82,1.71,1.37,1.37,0,0,0,1.7.83l4.24-1.48a1.34,1.34,0,0,0,.83-1.7,1.36,1.36,0,0,0-.68-.77A1.34,1.34,0,0,0,17.31,15.47Z"
      /><path
        class="cls-1"
        d="M48.43,50.29a2,2,0,0,1-.42,0,1.6,1.6,0,0,1-1.12-2l4.22-15.62-1.7-.6a1.57,1.57,0,0,1-.94-.88,1.55,1.55,0,0,1,0-1.3l2.41-5.1a1.58,1.58,0,0,1,2-.81l19.67,7.24a1.59,1.59,0,0,1,.94,2.06l-2,5.21a1.58,1.58,0,0,1-2,.92L54.14,33.62,50,49.11A1.59,1.59,0,0,1,48.43,50.29Zm5.2-20.16a1.89,1.89,0,0,1,.56.1l15,5.63L70,33.65l-16.81-6.2-1,2.2,1.39.49Z"
      /><path
        class="cls-1"
        d="M48.43,50.54a1.83,1.83,0,0,1-1.78-2.32l4.15-15.4-1.48-.52a1.83,1.83,0,0,1-1.08-1,1.87,1.87,0,0,1,0-1.5l2.41-5.1a1.83,1.83,0,0,1,2.3-.94L72.66,31a1.85,1.85,0,0,1,1,1,1.89,1.89,0,0,1,0,1.42l-2,5.2a1.84,1.84,0,0,1-2.37,1.08L54.31,34,50.2,49.18A1.83,1.83,0,0,1,48.43,50.54Zm3.91-26.42a1.31,1.31,0,0,0-1.2.77L48.72,30a1.35,1.35,0,0,0,.77,1.84l1.92.67L47.13,48.35A1.34,1.34,0,0,0,48.08,50a1.36,1.36,0,0,0,1.64-.94L54,33.29l15.62,5.88a1.32,1.32,0,0,0,1,0,1.39,1.39,0,0,0,.7-.75l2-5.21a1.36,1.36,0,0,0,0-1,1.29,1.29,0,0,0-.75-.7L52.81,24.2A1.26,1.26,0,0,0,52.34,24.12ZM69.28,36.19,54.1,30.47a1.27,1.27,0,0,0-.47-.09h-.14l-1.71-.6L53,27.14,70.3,33.5ZM53.63,29.88a1.82,1.82,0,0,1,.65.12L69,35.54l.66-1.75-16.36-6-.82,1.73,1.09.38Z"
      /><path
        class="cls-1"
        d="M62.07,50.29a1.55,1.55,0,0,1-.77-.2,1.59,1.59,0,0,1-.62-2.16l5.81-10.49A1.59,1.59,0,1,1,69.27,39L63.46,49.47A1.59,1.59,0,0,1,62.07,50.29Z"
      /><path
        class="cls-1"
        d="M62.07,50.54a1.84,1.84,0,0,1-1.61-2.73l5.81-10.49a1.84,1.84,0,0,1,2.5-.71,1.84,1.84,0,0,1,.72,2.5L63.68,49.59A1.83,1.83,0,0,1,62.07,50.54Zm5.81-13.67a1.19,1.19,0,0,0-.37.06,1.28,1.28,0,0,0-.8.64L60.9,48.05a1.34,1.34,0,0,0,.52,1.82,1.38,1.38,0,0,0,1.83-.52l5.8-10.48a1.34,1.34,0,0,0-1.17-2Z"
      /><path
        class="cls-1"
        d="M71.2,31.81h-.15a1.59,1.59,0,0,1-1.44-1.73c0-.28.52-6.89-4.94-8-5.79-1.12-8.42,2.53-8.52,2.68A1.59,1.59,0,0,1,53.52,23c.15-.22,3.84-5.55,11.76-4,6.63,1.29,7.81,8,7.5,11.37A1.59,1.59,0,0,1,71.2,31.81Z"
      /><path
        class="cls-1"
        d="M71.2,32.06H71a1.85,1.85,0,0,1-1.67-2c0-.27.51-6.67-4.74-7.69-5.63-1.1-8.16,2.43-8.27,2.58a1.84,1.84,0,0,1-3-2.08c.16-.23,3.94-5.69,12-4.12,6.8,1.33,8,8.2,7.7,11.64A1.83,1.83,0,0,1,71.2,32.06ZM62.52,21.65a11.79,11.79,0,0,1,2.2.22c5.68,1.11,5.17,7.93,5.14,8.22a1.34,1.34,0,0,0,2.67.25c.3-3.29-.84-9.85-7.3-11.1-7.76-1.52-11.36,3.68-11.51,3.9a1.34,1.34,0,0,0,2.22,1.51A8.09,8.09,0,0,1,62.52,21.65Z"
      /><path
        class="cls-1"
        d="M77.53,25.09a1.59,1.59,0,0,1-1.06-.41c-2.09-1.88-4.83,0-5,.11a1.59,1.59,0,0,1-1.86-2.58c1.69-1.23,5.73-2.79,8.94.1a1.6,1.6,0,0,1-1.07,2.78Z"
      /><path
        class="cls-1"
        d="M77.53,25.34a1.81,1.81,0,0,1-1.23-.48c-1.93-1.74-4.53.06-4.64.13a1.84,1.84,0,0,1-2.15-3c1.75-1.27,5.93-2.88,9.25.12a1.84,1.84,0,0,1-1.23,3.21Zm-3.2-1.74a3.34,3.34,0,0,1,2.3.89,1.39,1.39,0,0,0,1.9-.09,1.35,1.35,0,0,0-.1-1.9c-3.08-2.78-7-1.28-8.62-.09a1.34,1.34,0,0,0-.3,1.87,1.36,1.36,0,0,0,1.87.31A5.64,5.64,0,0,1,74.33,23.6Z"
      /><path
        class="cls-2"
        d="M51.77,12.8A6.28,6.28,0,1,1,58,6.53,6.27,6.27,0,0,1,51.77,12.8Zm0-9.37a3.1,3.1,0,1,0,3.09,3.1A3.1,3.1,0,0,0,51.77,3.43Z"
      /><path
        class="cls-2"
        d="M51.77,13.05a6.53,6.53,0,1,1,6.52-6.52A6.53,6.53,0,0,1,51.77,13.05ZM51.77.5a6,6,0,1,0,6,6A6,6,0,0,0,51.77.5Zm0,9.37a3.35,3.35,0,1,1,3.34-3.34A3.35,3.35,0,0,1,51.77,9.87Zm0-6.19a2.85,2.85,0,1,0,2.84,2.85A2.85,2.85,0,0,0,51.77,3.68Z"
      /><path
        class="cls-2"
        d="M6.52,41.65a6.28,6.28,0,1,1,6.27-6.28A6.28,6.28,0,0,1,6.52,41.65Zm0-9.37a3.1,3.1,0,1,0,3.09,3.09A3.1,3.1,0,0,0,6.52,32.28Z"
      /><path
        class="cls-2"
        d="M6.52,41.9A6.53,6.53,0,1,1,13,35.37,6.53,6.53,0,0,1,6.52,41.9Zm0-12.55a6,6,0,1,0,6,6A6,6,0,0,0,6.52,29.35Zm0,9.37a3.35,3.35,0,1,1,3.34-3.35A3.35,3.35,0,0,1,6.52,38.72Zm0-6.19a2.85,2.85,0,1,0,2.84,2.84A2.84,2.84,0,0,0,6.52,32.53Z"
      /><path
        class="cls-2"
        d="M35.6,22.22a4.73,4.73,0,1,1,4.73-4.73A4.73,4.73,0,0,1,35.6,22.22Zm0-6.28a1.55,1.55,0,1,0,1.55,1.55A1.55,1.55,0,0,0,35.6,15.94Z"
      /><path
        class="cls-2"
        d="M35.6,22.47a5,5,0,1,1,5-5A5,5,0,0,1,35.6,22.47Zm0-9.46a4.48,4.48,0,1,0,4.48,4.48A4.48,4.48,0,0,0,35.6,13Zm0,6.28a1.8,1.8,0,1,1,1.8-1.8A1.8,1.8,0,0,1,35.6,19.29Zm0-3.1a1.3,1.3,0,1,0,1.3,1.3A1.3,1.3,0,0,0,35.6,16.19Z"
      /><path
        class="cls-2"
        d="M78.9,42.17a4.73,4.73,0,1,1,4.72-4.73A4.73,4.73,0,0,1,78.9,42.17Zm0-6.28a1.55,1.55,0,1,0,1.54,1.55A1.55,1.55,0,0,0,78.9,35.89Z"
      /><path
        class="cls-3"
        d="M78.9,42.42a5,5,0,1,1,5-5A5,5,0,0,1,78.9,42.42Zm0-9.46a4.48,4.48,0,1,0,4.47,4.48A4.49,4.49,0,0,0,78.9,33Zm0,6.28a1.8,1.8,0,1,1,1.79-1.8A1.81,1.81,0,0,1,78.9,39.24Zm0-3.1a1.3,1.3,0,1,0,1.29,1.3A1.3,1.3,0,0,0,78.9,36.14Z"
      /></g></g></svg>
