<svg width="37" height="37" viewBox="0 0 37 37" fill="none" xmlns="http://www.w3.org/2000/svg">
<path d="M27.3723 21.5834C27.8276 21.5836 28.2785 21.6734 28.699 21.8479C29.1196 22.0223 29.5017 22.2779 29.8235 22.6C30.1454 22.9221 30.4006 23.3044 30.5746 23.7251C30.7487 24.1459 30.8382 24.5968 30.838 25.0521V25.9386C30.838 27.3168 30.3446 28.6504 29.4505 29.6971C27.0301 32.523 23.3501 33.9182 18.5 33.9182C13.6499 33.9182 9.97152 32.523 7.55727 29.6941C6.66404 28.6478 6.17317 27.3173 6.17285 25.9416V25.0506C6.17285 24.131 6.53815 23.2491 7.18837 22.5989C7.8386 21.9486 8.7205 21.5834 9.64006 21.5834H27.3723ZM27.3723 23.8959H9.63852C9.48662 23.8957 9.33617 23.9254 9.1958 23.9835C9.05543 24.0415 8.92788 24.1267 8.82047 24.2341C8.71307 24.3415 8.6279 24.469 8.56987 24.6094C8.51183 24.7498 8.48206 24.9002 8.48227 25.0521V25.9416C8.48227 26.7664 8.77827 27.565 9.31477 28.1925C11.2465 30.4572 14.2789 31.6057 18.4985 31.6057C22.7211 31.6057 25.7536 30.4572 27.6914 28.194C28.2289 27.5655 28.5242 26.7656 28.5239 25.9386V25.0506C28.5239 24.7446 28.4025 24.4511 28.1863 24.2346C27.9701 24.0181 27.6783 23.8963 27.3723 23.8959ZM18.5 3.09106C19.5123 3.09106 20.5147 3.29045 21.4499 3.67783C22.3851 4.06521 23.2348 4.633 23.9506 5.34878C24.6664 6.06457 25.2342 6.91433 25.6216 7.84955C26.009 8.78476 26.2084 9.78712 26.2084 10.7994C26.2084 11.8117 26.009 12.814 25.6216 13.7492C25.2342 14.6845 24.6664 15.5342 23.9506 16.25C23.2348 16.9658 22.3851 17.5336 21.4499 17.921C20.5147 18.3083 19.5123 18.5077 18.5 18.5077C16.4556 18.5077 14.495 17.6956 13.0494 16.25C11.6038 14.8044 10.7917 12.8438 10.7917 10.7994C10.7917 8.75502 11.6038 6.79438 13.0494 5.34878C14.495 3.90319 16.4556 3.09106 18.5 3.09106ZM18.5 5.40356C17.7914 5.40356 17.0898 5.54313 16.4351 5.8143C15.7805 6.08546 15.1856 6.48292 14.6846 6.98397C14.1835 7.48502 13.7861 8.07985 13.5149 8.7345C13.2438 9.38915 13.1042 10.0908 13.1042 10.7994C13.1042 11.508 13.2438 12.2096 13.5149 12.8643C13.7861 13.5189 14.1835 14.1138 14.6846 14.6148C15.1856 15.1159 15.7805 15.5133 16.4351 15.7845C17.0898 16.0557 17.7914 16.1952 18.5 16.1952C19.9311 16.1952 21.3035 15.6267 22.3154 14.6148C23.3274 13.6029 23.8959 12.2305 23.8959 10.7994C23.8959 9.36833 23.3274 7.99588 22.3154 6.98397C21.3035 5.97205 19.9311 5.40356 18.5 5.40356Z" fill="#91A563"/>
</svg>
