<svg width="23" height="24" viewBox="0 0 23 24" fill="none" xmlns="http://www.w3.org/2000/svg">
<path d="M7.31613 23.25L7.31921 23.25C8.15493 23.2397 8.98 23.061 9.7451 22.7247C10.5068 22.3898 11.1934 21.9055 11.7645 21.3005L12.3713 20.7611C15.2905 21.1458 17.723 20.597 19.2312 19.1395C20.7577 17.6641 21.3559 15.3732 20.9995 12.5418L20.9995 12.5418L20.9989 12.5374C20.8451 11.4707 20.7591 10.0395 20.8606 8.81255C20.9115 8.19819 21.0084 7.64774 21.1606 7.22358C21.3097 6.80818 21.4951 6.55985 21.6962 6.45547C21.8743 6.4184 22.0331 6.31705 22.1418 6.17C22.2588 6.0117 22.3081 5.8134 22.2789 5.61873C22.2497 5.42405 22.1444 5.24895 21.9861 5.13194L21.8375 5.33299L21.9861 5.13194C21.8378 5.02232 21.6543 4.9721 21.4717 4.99021L17.8606 4.55572L17.8477 4.55417L17.8346 4.55396C17.1739 4.54364 16.3981 4.68064 15.6873 5.22066C14.9769 5.76038 14.3612 6.6802 13.9766 8.17849L13.9742 8.18799L13.9725 8.19765L13.6873 9.83111C11.9364 9.81111 10.241 9.20093 8.87734 8.09608C7.46018 6.94787 6.49135 5.33834 6.14004 3.54855L6.13977 3.54724C6.11272 3.41325 6.04941 3.28926 5.95673 3.18878C5.86405 3.08831 5.74556 3.01521 5.61418 2.97746C5.48281 2.93971 5.34359 2.93875 5.21171 2.9747C5.07983 3.01064 4.96034 3.0821 4.86629 3.1813L4.84385 3.20496L4.8394 3.21311L4.83923 3.21331L4.78942 3.2691C4.74562 3.31828 4.68367 3.38876 4.60857 3.47951C4.45843 3.66095 4.25635 3.92263 4.03914 4.25937C3.60499 4.93242 3.10892 5.90769 2.84745 7.14353C2.32872 9.5954 2.74433 13.0199 6.26828 17.0849C5.77646 17.5597 4.4906 18.3903 1.4329 18.5445L1.4329 18.5445L1.43051 18.5446C1.29722 18.5526 1.16852 18.5962 1.05781 18.6709C0.947106 18.7456 0.858452 18.8485 0.801091 18.9691L0.794807 18.9823L0.790107 18.9962C0.745289 19.1283 0.73787 19.2702 0.768669 19.4062C0.797901 19.5353 0.860478 19.6543 0.949991 19.7515C1.0103 19.8341 1.18711 20.0493 1.45242 20.3276C1.75528 20.6452 2.18512 21.0573 2.71692 21.4716C3.77627 22.2968 5.26285 23.1479 6.97026 23.2496L6.97768 23.25H6.98512L7.31613 23.25ZM4.84882 3.2023L4.84821 3.203C4.85093 3.1995 4.85165 3.1989 4.84882 3.2023ZM7.70605 16.966C7.72153 17.0571 7.71124 17.1508 7.67635 17.2365L4.97803 4.99687C3.84042 6.76356 2.2825 10.952 7.58873 16.7205C7.64994 16.7898 7.69057 16.8748 7.70605 16.966ZM5.08544 5.29702C6.25141 8.40998 8.47227 9.91802 10.4454 10.6404C11.479 11.0188 12.4445 11.1821 13.1563 11.2509C13.5125 11.2854 13.8061 11.2963 14.014 11.2986C14.2012 11.3006 14.3692 11.2945 14.3453 11.2945H14.3552L14.3651 11.2938C14.5275 11.2808 14.6811 11.2152 14.8027 11.1069C14.9243 10.9985 15.0071 10.8534 15.0385 10.6936L15.0385 10.6936L15.0395 10.6879L15.4174 8.49808C15.6443 7.63306 15.9704 7.01475 16.3646 6.61509C16.7511 6.22323 17.2128 6.03091 17.7483 6.02755L19.9276 6.28443C19.4452 7.29657 19.3183 8.68392 19.3161 9.8831C19.3137 11.2321 19.4702 12.4056 19.5106 12.6842C19.8071 15.098 19.3776 16.8713 18.1734 18.0299C16.9698 19.1878 14.9246 19.6413 12.2365 19.2002C12.1269 19.1802 12.0141 19.1858 11.9069 19.2164C11.799 19.2472 11.6998 19.3026 11.6169 19.3781C11.6166 19.3783 11.6164 19.3785 11.6162 19.3787L10.7217 20.1857L10.7119 20.1945L10.7032 20.2043C10.2458 20.7135 9.68299 21.1171 9.05394 21.3869C8.429 21.655 7.75353 21.7847 7.07386 21.7672C5.57989 21.5591 4.19068 20.8955 3.09259 19.8728C6.91449 19.3147 7.7862 17.6282 7.90774 17.3311L7.90787 17.3308C7.96033 17.202 7.9758 17.0612 7.95252 16.9241C7.92924 16.7871 7.86815 16.6592 7.77613 16.555L7.77617 16.555L7.77272 16.5512C5.00974 13.5476 4.15183 11.0036 4.10257 9.0388C4.06109 7.38489 4.59191 6.11438 5.08544 5.29702Z" fill="#4C7D71" stroke="#4C7D71" stroke-width="0.5"/>
<path d="M8.11798 5.94927L8.12019 5.9583L8.12349 5.967C8.55484 7.10178 9.62807 7.82399 10.5824 8.26161C11.5016 8.68311 12.3455 8.85638 12.4909 8.87746C12.5705 8.89795 12.6534 8.90284 12.7349 8.89184C12.82 8.88034 12.9019 8.85174 12.9757 8.80775L12.8989 8.67891L12.9757 8.80775C13.0495 8.76376 13.1137 8.7053 13.1643 8.63587C13.2149 8.56645 13.2509 8.48751 13.2702 8.4038L13.2702 8.40381L13.2711 8.39977C13.303 8.24133 13.2754 8.07667 13.1935 7.93734C13.1115 7.79801 12.9811 7.69382 12.8271 7.64473L12.8272 7.6443L12.816 7.64166C12.816 7.64165 12.8067 7.6392 12.7885 7.62256C12.77 7.60555 12.7471 7.57808 12.721 7.53667C12.6685 7.45348 12.613 7.33007 12.557 7.16631C12.4454 6.83997 12.3403 6.37895 12.2493 5.82232C12.0678 4.71135 11.9459 3.24028 11.9352 1.74958C11.9382 1.64658 11.9153 1.54446 11.8687 1.45255L11.7349 1.52044L11.8687 1.45255C11.8215 1.35973 11.7517 1.28032 11.6657 1.22172C11.579 1.1624 11.4789 1.1258 11.3744 1.11528C11.2705 1.10481 11.1656 1.12045 11.0693 1.16078C10.0727 1.55277 9.35298 2.58604 8.88219 3.53406C8.64444 4.01279 8.4656 4.47918 8.34373 4.8494C8.23192 5.1891 8.16465 5.45821 8.1469 5.58252C8.09837 5.69832 8.0881 5.82686 8.11798 5.94927ZM10.6014 3.07039C10.6352 4.45093 10.8302 5.82296 11.1826 7.15853C10.4345 6.86611 9.79276 6.34948 9.34711 5.67708C9.59894 4.73645 10.0247 3.85244 10.6014 3.07039Z" fill="#4C7D71" stroke="#4C7D71" stroke-width="0.3"/>
<path d="M17.3439 8.32827C17.4246 8.32827 17.4899 8.26288 17.4899 8.18223C17.4899 8.10158 17.4246 8.03619 17.3439 8.03619C17.2633 8.03619 17.1979 8.10158 17.1979 8.18223C17.1979 8.26288 17.2633 8.32827 17.3439 8.32827Z" fill="#4C7D71"/>
<path d="M17.3439 8.44504C17.2742 8.44504 17.2073 8.41735 17.158 8.36805C17.1087 8.31875 17.0811 8.25189 17.0811 8.18218C17.0811 8.11246 17.1087 8.0456 17.158 7.9963C17.2073 7.94701 17.2742 7.91931 17.3439 7.91931C17.4136 7.91931 17.4805 7.94701 17.5298 7.9963C17.5791 8.0456 17.6068 8.11246 17.6068 8.18218C17.6068 8.25189 17.5791 8.31875 17.5298 8.36805C17.4805 8.41735 17.4136 8.44504 17.3439 8.44504Z" fill="#4C7D71"/>
<path d="M17.3439 8.81502C17.2188 8.81502 17.0964 8.77791 16.9924 8.70837C16.8883 8.63884 16.8072 8.54 16.7593 8.42437C16.7114 8.30874 16.6989 8.1815 16.7233 8.05874C16.7477 7.93599 16.808 7.82323 16.8965 7.73473C16.985 7.64623 17.0977 7.58595 17.2205 7.56154C17.3432 7.53712 17.4705 7.54965 17.5861 7.59755C17.7017 7.64545 17.8006 7.72656 17.8701 7.83062C17.9397 7.93469 17.9768 8.05704 17.9768 8.1822C17.9768 8.35004 17.9101 8.511 17.7914 8.62967C17.6727 8.74835 17.5118 8.81502 17.3439 8.81502ZM17.3439 7.84145C17.2622 7.85521 17.188 7.89748 17.1345 7.96075C17.081 8.02402 17.0517 8.10421 17.0517 8.18707C17.0517 8.26993 17.081 8.35011 17.1345 8.41338C17.188 8.47666 17.2622 8.51892 17.3439 8.53269C17.3942 8.54115 17.4457 8.53855 17.4948 8.52508C17.544 8.51161 17.5896 8.48759 17.6285 8.45469C17.6674 8.42179 17.6986 8.3808 17.7201 8.33458C17.7415 8.28836 17.7526 8.23802 17.7526 8.18707C17.7526 8.13612 17.7415 8.08578 17.7201 8.03956C17.6986 7.99334 17.6674 7.95235 17.6285 7.91945C17.5896 7.88655 17.544 7.86252 17.4948 7.84905C17.4457 7.83558 17.3942 7.83299 17.3439 7.84145Z" fill="#4C7D71"/>
<path d="M16.8377 8.18221C16.8377 8.1822 16.8377 8.1822 16.8377 8.1822H16.8378L16.8377 8.18221ZM16.8377 8.18221C16.8468 8.24788 16.8683 8.31063 16.9007 8.3673C16.925 8.40981 16.9553 8.4489 16.991 8.48324C16.9605 8.44637 16.936 8.4049 16.9184 8.36031C16.8961 8.30394 16.8852 8.24371 16.8864 8.18312L16.8377 8.18221ZM17.344 7.67595C17.281 7.67713 17.2195 7.68977 17.1621 7.7127C17.0978 7.73842 17.0386 7.77708 16.9887 7.82699C16.9669 7.84881 16.9472 7.87239 16.9299 7.8974C16.8723 7.98031 16.8398 8.07891 16.8377 8.18117L16.8442 8.18131L16.8864 8.17547C16.8877 8.08498 16.9153 7.99678 16.9659 7.9216C16.9815 7.89834 16.9991 7.87664 17.0185 7.85672C17.0632 7.81066 17.1172 7.77409 17.1772 7.74961C17.2305 7.72787 17.287 7.71628 17.344 7.71509L17.344 7.67595ZM17.344 7.67595C17.3819 7.67594 17.4195 7.68013 17.456 7.68825C17.5495 7.70903 17.636 7.75556 17.7054 7.82362C17.7078 7.82601 17.7103 7.82841 17.7126 7.83084C17.783 7.90263 17.8304 7.99294 17.8499 8.09034C17.856 8.1204 17.8594 8.15114 17.8599 8.18221M17.344 7.67595L17.3447 7.71508C17.3794 7.71441 17.4142 7.7176 17.4485 7.72471C17.5363 7.7429 17.6169 7.78595 17.6809 7.84864C17.6831 7.85086 17.6854 7.8531 17.6876 7.85536C17.7525 7.9217 17.7963 8.00587 17.8132 8.09715C17.8181 8.12356 17.8207 8.15021 17.821 8.17682L17.8599 8.18221M17.8599 8.18221C17.8506 8.24999 17.8279 8.31466 17.7938 8.37274C17.7758 8.40345 17.7545 8.43231 17.7304 8.45883C17.751 8.43071 17.7686 8.40023 17.7826 8.36789C17.808 8.30922 17.8209 8.24627 17.821 8.18294L17.8599 8.18221ZM17.1787 8.19258L17.1798 8.19281L17.1798 8.18216C17.1797 8.13731 17.197 8.09418 17.228 8.06178C17.2588 8.02963 17.3006 8.0105 17.345 8.00829C17.3908 8.00857 17.4346 8.02687 17.4669 8.05923C17.4995 8.09184 17.5179 8.13608 17.5179 8.18221H17.5168L17.519 8.19258C17.5243 8.21791 17.524 8.24413 17.5179 8.26931C17.5119 8.2945 17.5003 8.31801 17.484 8.33813C17.4676 8.35826 17.4471 8.37449 17.4237 8.38563C17.4003 8.39678 17.3747 8.40257 17.3488 8.40257C17.3229 8.40257 17.2973 8.39678 17.274 8.38563C17.2506 8.37449 17.23 8.35826 17.2137 8.33813C17.1974 8.31801 17.1858 8.2945 17.1797 8.26931C17.1737 8.24413 17.1733 8.21792 17.1787 8.19258ZM16.7785 8.74765C16.9285 8.89761 17.1319 8.98186 17.344 8.98186C17.556 8.98186 17.7594 8.89761 17.9094 8.74765C18.0594 8.59768 18.1436 8.39429 18.1436 8.18221C18.1436 7.97013 18.0594 7.76673 17.9094 7.61677C17.7594 7.4668 17.556 7.38256 17.344 7.38256C17.1319 7.38256 16.9285 7.4668 16.7785 7.61677C16.6285 7.76673 16.5443 7.97013 16.5443 8.18221C16.5443 8.39429 16.6285 8.59768 16.7785 8.74765Z" fill="#4C7D71" stroke="#4C7D71" stroke-width="0.1"/>
</svg>
