<svg width="18" height="18" viewBox="0 0 18 18" fill="none" xmlns="http://www.w3.org/2000/svg">
<path d="M11.9167 7.02496C10.8372 7.60058 9.85328 8.33989 9.00002 9.21663C8.15118 8.33488 7.16646 7.59493 6.08335 7.02496C6.28335 4.71663 7.26669 2.44996 9.05002 0.666626C10.8167 2.43329 11.7584 4.69996 11.9167 7.02496ZM9.00002 11.875C10.7917 9.14163 13.85 7.33329 17.3334 7.33329C17.3334 15.6666 9.56669 17.2333 9.00002 17.3333C8.43335 17.2416 0.666687 15.6666 0.666687 7.33329C4.15002 7.33329 7.20835 9.14163 9.00002 11.875ZM9.04169 3.32496C8.49169 4.19163 8.10835 5.14996 7.90002 6.14996L9.00002 6.95829L10.125 6.14163C9.93335 5.14163 9.56669 4.18329 9.04169 3.32496ZM9.00002 15.6416C9.00002 15.6416 14 14.8333 15.45 9.20829C10.6667 10.6666 9.00002 14.9166 9.00002 14.9166C9.00002 14.9166 6.50002 9.83329 2.55002 9.21663C4.00002 14.8333 9.00002 15.6416 9.00002 15.6416Z" fill="#4C7D71" stroke="#4C7D71" stroke-width="0.5"/>
</svg>
