<svg width="23" height="23" viewBox="0 0 23 23" fill="none" xmlns="http://www.w3.org/2000/svg">
<path d="M21.3677 8.63649L12.9354 0.676762L12.9186 0.660941C12.531 0.306305 12.0248 0.109619 11.4995 0.109619C10.9742 0.109619 10.4679 0.306305 10.0804 0.660941L10.0625 0.676762L1.63234 8.63649C1.41856 8.83428 1.24789 9.07407 1.13102 9.34084C1.01415 9.60761 0.953588 9.89563 0.953125 10.1869V19.9375C0.953125 20.4969 1.17536 21.0334 1.57095 21.429C1.96653 21.8246 2.50306 22.0468 3.0625 22.0468H8.125C8.68444 22.0468 9.22097 21.8246 9.61655 21.429C10.0121 21.0334 10.2344 20.4969 10.2344 19.9375V15.2968H12.7656V19.9375C12.7656 20.4969 12.9879 21.0334 13.3834 21.429C13.779 21.8246 14.3156 22.0468 14.875 22.0468H19.9375C20.4969 22.0468 21.0335 21.8246 21.4291 21.429C21.8246 21.0334 22.0469 20.4969 22.0469 19.9375V10.1869C22.0464 9.89563 21.9858 9.60761 21.869 9.34084C21.7521 9.07407 21.5814 8.83428 21.3677 8.63649ZM19.5156 19.5156H15.2969V14.875C15.2969 14.598 15.2423 14.3237 15.1363 14.0677C15.0303 13.8118 14.8749 13.5793 14.6791 13.3834C14.4832 13.1875 14.2506 13.0322 13.9947 12.9262C13.7388 12.8202 13.4645 12.7656 13.1875 12.7656H9.8125C9.25306 12.7656 8.71653 12.9878 8.32095 13.3834C7.92536 13.779 7.70312 14.3155 7.70312 14.875V19.5156H3.48438V10.3693L11.5 2.80196L19.5156 10.3693V19.5156Z" fill="white"/>
</svg>
