<svg width="23" height="23" viewBox="0 0 23 23" fill="none" xmlns="http://www.w3.org/2000/svg">
<path d="M8 5.32149V21.7821M15 1V17.6257M1 7.7809C1 6.03045 1 5.15642 1.4585 4.64577C1.62077 4.46411 1.81818 4.31856 2.03833 4.21825C2.659 3.93799 3.4745 4.21469 5.1055 4.76809C6.35033 5.19086 6.97217 5.40224 7.60217 5.37968C7.83328 5.37194 8.06307 5.34091 8.28817 5.28705C8.90067 5.1386 9.44667 4.76809 10.5387 4.02825L12.151 2.93333C13.551 1.98329 14.2498 1.50827 15.0525 1.4002C15.8552 1.28976 16.6532 1.56052 18.248 2.10204L19.6072 2.56281C20.7622 2.9547 21.3397 3.15065 21.6698 3.61736C22 4.08406 22 4.70396 22 5.94257V15.5961C22 17.3454 22 18.2206 21.5415 18.7313C21.379 18.9121 21.1816 19.0568 20.9617 19.1564C20.341 19.4379 19.5255 19.1612 17.8945 18.6078C16.6497 18.185 16.0278 17.9736 15.3978 17.9962C15.1667 18.0039 14.9369 18.035 14.7118 18.0888C14.0993 18.2373 13.5533 18.6078 12.4613 19.3476L10.849 20.4425C9.449 21.3926 8.75017 21.8676 7.9475 21.9757C7.14483 22.0861 6.34683 21.8153 4.752 21.2738L3.39283 20.813C2.23783 20.4212 1.66033 20.2252 1.33017 19.7585C1 19.2918 1 18.6707 1 17.4333V7.77971V7.7809Z" stroke="#4C7D71" stroke-width="2"/>
</svg>
