<svg width="18" height="20" viewBox="0 0 18 20" fill="none" xmlns="http://www.w3.org/2000/svg">
<path d="M6.81249 9.64221C7.15663 11.932 6.52616 13.184 4.74569 13.4473C2.76718 13.7399 1.95194 12.4145 1.6078 10.1246C1.14491 7.04338 2.2328 5.12697 3.78397 5.00353C5.19569 4.89143 6.46796 7.35275 6.81249 9.64221ZM7.73632 15.9973C7.85858 17.2973 7.15585 18.5106 6.09569 18.7184C5.02538 18.9278 3.80233 18.0789 3.55312 16.7969C3.3039 15.5149 4.24647 15.4469 5.40155 15.2262C6.55663 15.0055 7.58866 14.4293 7.73632 15.9973ZM11.1875 5.89182C10.8434 8.18166 11.4738 9.43361 13.2539 9.69689C15.2328 9.98947 16.0476 8.66408 16.3918 6.37424C16.8551 3.2926 15.7668 1.36564 14.216 1.25314C12.7941 1.15002 11.532 3.60197 11.1875 5.89182ZM10.2637 12.2473C10.1414 13.5469 10.8441 14.7606 11.9043 14.9684C12.9746 15.1778 14.1976 14.3289 14.4469 13.0469C14.6961 11.7649 13.7535 11.6969 12.5984 11.4758C11.4434 11.2547 10.4113 10.6789 10.2637 12.2473Z" stroke="#4C7D71" stroke-width="2" stroke-miterlimit="10"/>
</svg>
