<svg width="96" height="100" viewBox="0 0 96 100" fill="none" xmlns="http://www.w3.org/2000/svg">
<path d="M30.4839 96.875H30.4967C33.9789 96.8321 37.4167 96.0875 40.6046 94.6863C43.7783 93.2908 46.6392 91.2729 49.0188 88.7521L51.5471 86.5046C63.7104 88.1075 73.8458 85.8208 80.13 79.7479C86.4904 73.6004 88.9829 64.055 87.4979 52.2575L87.4954 52.2392C86.8546 47.7946 86.4963 41.8313 86.9192 36.719C87.1313 34.1591 87.535 31.8656 88.1692 30.0983C88.7904 28.3674 89.5629 27.3327 90.4008 26.8978C91.1429 26.7433 91.8046 26.321 92.2575 25.7083C92.745 25.0488 92.9504 24.2225 92.8288 23.4114C92.7071 22.6002 92.2683 21.8706 91.6088 21.3831C90.9908 20.9263 90.2263 20.7171 89.4654 20.7925L74.4192 18.9822L74.3654 18.9757L74.3108 18.9748C71.5579 18.9318 68.3254 19.5027 65.3638 21.7528C62.4038 24.0016 59.8383 27.8342 58.2358 34.077L58.2258 34.1166L58.2188 34.1569L57.0304 40.963C49.735 40.8796 42.6708 38.3372 36.9889 33.7337C31.0841 28.9495 27.0473 22.2431 25.5835 14.7856L25.5824 14.7802C25.4697 14.2219 25.2059 13.7052 24.8197 13.2866C24.4335 12.868 23.9398 12.5634 23.3924 12.4061C22.845 12.2488 22.265 12.2448 21.7155 12.3946C21.166 12.5443 20.6681 12.8421 20.2762 13.2554L20.1827 13.354L20.1642 13.388L19.9559 13.6212C19.7734 13.8262 19.5153 14.1198 19.2024 14.498C18.5768 15.254 17.7348 16.3443 16.8298 17.7474C15.0208 20.5517 12.9538 24.6154 11.8644 29.7647C9.703 39.9808 11.4347 54.2496 26.1178 71.1871C24.0686 73.1654 18.7108 76.6263 5.97042 77.2688L5.96046 77.2692C5.40508 77.3025 4.86883 77.4842 4.40754 77.7954C3.94628 78.1067 3.57688 78.5354 3.33788 79.0379L3.3117 79.0929L3.29211 79.1508C3.10537 79.7013 3.07446 80.2925 3.20279 80.8592C3.32459 81.3971 3.58533 81.8929 3.9583 82.2979C4.20958 82.6421 4.94629 83.5388 6.05175 84.6983C7.31367 86.0217 9.10467 87.7388 11.3205 89.465C15.7345 92.9033 21.9285 96.4496 29.0428 96.8733L29.0737 96.875H29.1047H30.4839ZM20.2034 13.3429C20.2152 13.3287 20.2148 13.3283 20.2034 13.3429ZM32.1085 70.6917C32.173 71.0713 33.321 70.83 33.1757 71.1871L23.1623 58.5541L16.6667 43.75L16.5937 29.7647L20.9511 17.7474C16.211 25.1086 9.51042 45.6333 31.6197 69.6688C31.8748 69.9575 32.044 70.3117 32.1085 70.6917ZM21.1893 22.0709C26.0475 35.0416 35.3011 41.3251 43.5225 44.335C47.8292 45.9117 51.8521 46.5921 54.8179 46.8788C56.3021 47.0225 57.5254 47.0679 58.3917 47.0775C59.1717 47.0858 59.8717 47.0604 59.7721 47.0604H59.8133L59.8546 47.0575C60.5313 47.0033 61.1713 46.73 61.6779 46.2788C62.1846 45.8271 62.5296 45.2225 62.6604 44.5567L62.6646 44.5329L64.2392 35.4087C65.1846 31.8044 66.5433 29.2281 68.1858 27.5629C69.7963 25.9301 71.72 25.1288 73.9513 25.1148L83.0317 26.1851C81.0217 30.4024 80.4929 36.183 80.4838 41.1796C80.4738 46.8004 81.1258 51.69 81.2942 52.8508C82.5296 62.9083 80.74 70.2971 75.7225 75.1246C70.7075 79.9492 62.1858 81.8387 50.9854 80.0008C50.5288 79.9175 50.0588 79.9408 49.6121 80.0683C49.1625 80.1967 48.7492 80.4275 48.4038 80.7421L44.6738 84.1071L44.6329 84.1438L44.5967 84.1846C42.6908 86.3063 40.3458 87.9879 37.7248 89.1121C35.1208 90.2292 32.3064 90.7696 29.4744 90.6967C23.2495 89.8296 17.4612 87.0646 12.8858 82.8033C28.8104 80.4779 32.4425 73.4508 32.9489 72.2129C33.1675 71.6763 33.2325 71.0883 33.1355 70.5171C33.0385 69.9463 32.784 69.4133 32.4005 68.9792L32.3863 68.9633C20.8739 56.4483 17.2993 45.8483 17.094 37.6617C16.9212 30.7704 19.133 25.4766 21.1893 22.0709Z" fill="white"/>
<path d="M91.6088 21.3831C92.2683 21.8706 92.7071 22.6002 92.8288 23.4114C92.9504 24.2225 92.745 25.0488 92.2575 25.7083C91.8046 26.321 91.1429 26.7433 90.4008 26.8978C89.5629 27.3327 88.7904 28.3674 88.1692 30.0983C87.535 31.8656 87.1313 34.1591 86.9192 36.719C86.4963 41.8313 86.8546 47.7946 87.4954 52.2392L87.4979 52.2575C88.9829 64.055 86.4904 73.6004 80.13 79.7479C73.8458 85.8208 63.7104 88.1075 51.5471 86.5046L49.0188 88.7521C46.6392 91.2729 43.7783 93.2908 40.6046 94.6863C37.4167 96.0875 33.9789 96.8321 30.4967 96.875H30.4839H29.1047H29.0737L29.0428 96.8733C21.9285 96.4496 15.7345 92.9033 11.3205 89.465C9.10467 87.7388 7.31367 86.0217 6.05175 84.6983C4.94629 83.5388 4.20958 82.6421 3.9583 82.2979C3.58533 81.8929 3.32459 81.3971 3.20279 80.8592C3.07446 80.2925 3.10537 79.7013 3.29211 79.1508L3.3117 79.0929L3.33788 79.0379C3.57688 78.5354 3.94628 78.1067 4.40754 77.7954C4.86883 77.4842 5.40508 77.3025 5.96046 77.2692L5.97042 77.2688C18.7108 76.6263 24.0686 73.1654 26.1178 71.1871C11.4347 54.2496 9.703 39.9808 11.8644 29.7647C12.9538 24.6154 15.0208 20.5517 16.8298 17.7474C17.7348 16.3443 18.5768 15.254 19.2024 14.498C19.5153 14.1198 19.7734 13.8262 19.9559 13.6212L20.1642 13.388L20.1827 13.354L20.2762 13.2554C20.6681 12.8421 21.166 12.5443 21.7155 12.3946C22.265 12.2448 22.845 12.2488 23.3924 12.4061C23.9398 12.5634 24.4335 12.868 24.8197 13.2866C25.2059 13.7052 25.4697 14.2219 25.5824 14.7802L25.5835 14.7856C27.0473 22.2431 31.0841 28.9495 36.9889 33.7337C42.6708 38.3372 49.735 40.8796 57.0304 40.963L58.2188 34.1569L58.2258 34.1166L58.2358 34.077C59.8383 27.8342 62.4038 24.0016 65.3638 21.7528C68.3254 19.5027 71.5579 18.9318 74.3108 18.9748L74.3654 18.9757L74.4192 18.9822L89.4654 20.7925C90.2263 20.7171 90.9908 20.9263 91.6088 21.3831ZM91.6088 21.3831L90.9896 22.2208M20.2034 13.3429C20.2148 13.3283 20.2152 13.3287 20.2034 13.3429ZM32.1085 70.6917C32.173 71.0713 33.321 70.83 33.1757 71.1871L23.1623 58.5541L16.6667 43.75L16.5937 29.7647L20.9511 17.7474C16.211 25.1086 9.51042 45.6333 31.6197 69.6688C31.8748 69.9575 32.044 70.3117 32.1085 70.6917ZM21.1893 22.0709C26.0475 35.0416 35.3011 41.3251 43.5225 44.335C47.8292 45.9117 51.8521 46.5921 54.8179 46.8788C56.3021 47.0225 57.5254 47.0679 58.3917 47.0775C59.1717 47.0858 59.8717 47.0604 59.7721 47.0604H59.8133L59.8546 47.0575C60.5313 47.0033 61.1713 46.73 61.6779 46.2788C62.1846 45.8271 62.5296 45.2225 62.6604 44.5567L62.6646 44.5329L64.2392 35.4087C65.1846 31.8044 66.5433 29.2281 68.1858 27.5629C69.7963 25.9301 71.72 25.1288 73.9513 25.1148L83.0317 26.1851C81.0217 30.4024 80.4929 36.183 80.4838 41.1796C80.4738 46.8004 81.1258 51.69 81.2942 52.8508C82.5296 62.9083 80.74 70.2971 75.7225 75.1246C70.7075 79.9492 62.1858 81.8387 50.9854 80.0008C50.5288 79.9175 50.0588 79.9408 49.6121 80.0683C49.1625 80.1967 48.7492 80.4275 48.4038 80.7421L44.6738 84.1071L44.6329 84.1438L44.5967 84.1846C42.6908 86.3063 40.3458 87.9879 37.7248 89.1121C35.1208 90.2292 32.3064 90.7696 29.4744 90.6967C23.2495 89.8296 17.4612 87.0646 12.8858 82.8033C28.8104 80.4779 32.4425 73.4508 32.9489 72.2129C33.1675 71.6763 33.2325 71.0883 33.1355 70.5171C33.0385 69.9463 32.784 69.4133 32.4005 68.9792L32.3863 68.9633C20.8739 56.4483 17.2993 45.8483 17.094 37.6617C16.9212 30.7704 19.133 25.4766 21.1893 22.0709Z" stroke="white" stroke-width="0.5"/>
<path d="M33.8249 24.7886L33.8341 24.8262L33.8479 24.8625C35.6452 29.5907 40.1169 32.6 44.0933 34.4234C47.9233 36.1796 51.4396 36.9016 52.0454 36.9894C52.3771 37.0748 52.7225 37.0952 53.0621 37.0493C53.4167 37.0014 53.7579 36.8822 54.0654 36.699C54.3729 36.5157 54.6404 36.2721 54.8512 35.9828C55.0621 35.6935 55.2121 35.3646 55.2925 35.0158L55.2962 34.999C55.4292 34.3389 55.3142 33.6528 54.9729 33.0722C54.6312 32.4917 54.0879 32.0576 53.4462 31.853L53.4 31.8402C53.4 31.8402 53.3612 31.83 53.2854 31.7607C53.2083 31.6898 53.1129 31.5753 53.0042 31.4028C52.7854 31.0562 52.5542 30.542 52.3208 29.8596C51.8558 28.4999 51.4179 26.579 51.0387 24.2597C50.2825 19.6306 49.7746 13.5012 49.73 7.28992C49.7425 6.86075 49.6471 6.43525 49.4529 6.05229C49.2562 5.66554 48.9654 5.33467 48.6071 5.0905C48.2458 4.84333 47.8287 4.69083 47.3933 4.647C46.9604 4.60337 46.5233 4.66854 46.1221 4.83658C41.9696 6.46987 38.9707 10.7752 37.0091 14.7252C36.0185 16.72 35.2733 18.6632 34.7655 20.2058C34.2997 21.6212 34.0194 22.7425 33.9454 23.2605C33.7432 23.743 33.7004 24.2786 33.8249 24.7886ZM44.1725 12.7933C44.3133 18.5455 45.1258 24.2623 46.5942 29.8272C43.4771 28.6088 40.8032 26.4562 38.9463 23.6545C39.9956 19.7352 41.7696 16.0518 44.1725 12.7933Z" fill="white"/>
<path d="M54.0654 36.699C53.7579 36.8822 53.4167 37.0014 53.0621 37.0493C52.7225 37.0952 52.3771 37.0748 52.0454 36.9894C51.4396 36.9016 47.9233 36.1796 44.0933 34.4234C40.1169 32.6 35.6452 29.5907 33.8479 24.8625L33.8341 24.8262L33.8249 24.7886C33.7004 24.2786 33.7432 23.743 33.9454 23.2605C34.0194 22.7425 34.2997 21.6212 34.7655 20.2058C35.2733 18.6632 36.0185 16.72 37.0091 14.7252C38.9707 10.7752 41.9696 6.46987 46.1221 4.83658C46.5233 4.66854 46.9604 4.60337 47.3933 4.647C47.8287 4.69083 48.2458 4.84333 48.6071 5.0905C48.9654 5.33467 49.2562 5.66554 49.4529 6.05229M54.0654 36.699L53.7454 36.1621M54.0654 36.699C54.3729 36.5157 54.6404 36.2721 54.8512 35.9828C55.0621 35.6935 55.2121 35.3646 55.2925 35.0158L55.2962 34.999C55.4292 34.3389 55.3142 33.6528 54.9729 33.0722C54.6312 32.4917 54.0879 32.0576 53.4462 31.853L53.4 31.8402C53.4 31.8402 53.3612 31.83 53.2854 31.7607C53.2083 31.6898 53.1129 31.5753 53.0042 31.4028C52.7854 31.0562 52.5542 30.542 52.3208 29.8596C51.8558 28.4999 51.4179 26.579 51.0387 24.2597C50.2825 19.6306 49.7746 13.5012 49.73 7.28992C49.7425 6.86075 49.6471 6.43525 49.4529 6.05229M49.4529 6.05229L48.8954 6.33517M44.1725 12.7933C44.3133 18.5455 45.1258 24.2623 46.5942 29.8272C43.4771 28.6088 40.8032 26.4562 38.9463 23.6545C39.9956 19.7352 41.7696 16.0518 44.1725 12.7933Z" stroke="white" stroke-width="0.3"/>
<path d="M72.2663 34.7011C72.6025 34.7011 72.8746 34.4287 72.8746 34.0926C72.8746 33.7566 72.6025 33.4841 72.2663 33.4841C71.9305 33.4841 71.658 33.7566 71.658 34.0926C71.658 34.4287 71.9305 34.7011 72.2663 34.7011Z" fill="white"/>
<path d="M72.2663 35.1877C71.9758 35.1877 71.6971 35.0723 71.4917 34.8669C71.2863 34.6615 71.1713 34.3829 71.1713 34.0924C71.1713 33.8019 71.2863 33.5233 71.4917 33.3179C71.6971 33.1125 71.9758 32.9971 72.2663 32.9971C72.5567 32.9971 72.8354 33.1125 73.0408 33.3179C73.2463 33.5233 73.3617 33.8019 73.3617 34.0924C73.3617 34.3829 73.2463 34.6615 73.0408 34.8669C72.8354 35.0723 72.5567 35.1877 72.2663 35.1877Z" fill="white"/>
<path d="M72.2662 36.7292C71.745 36.7292 71.235 36.5746 70.8017 36.2849C70.3679 35.9952 70.03 35.5833 69.8304 35.1015C69.6308 34.6197 69.5787 34.0896 69.6804 33.5781C69.7821 33.0666 70.0333 32.5968 70.4021 32.228C70.7708 31.8593 71.2404 31.6081 71.7521 31.5064C72.2633 31.4047 72.7937 31.4569 73.2754 31.6565C73.7571 31.856 74.1692 32.194 74.4587 32.6276C74.7487 33.0612 74.9033 33.571 74.9033 34.0925C74.9033 34.7918 74.6254 35.4625 74.1308 35.957C73.6362 36.4515 72.9658 36.7292 72.2662 36.7292ZM72.2662 32.6727C71.9258 32.73 71.6167 32.9062 71.3937 33.1698C71.1708 33.4334 71.0487 33.7675 71.0487 34.1128C71.0487 34.458 71.1708 34.7921 71.3937 35.0557C71.6167 35.3194 71.9258 35.4955 72.2662 35.5529C72.4758 35.5881 72.6904 35.5773 72.895 35.5212C73.1 35.465 73.29 35.365 73.4521 35.2279C73.6142 35.0908 73.7442 34.92 73.8337 34.7274C73.9229 34.5348 73.9692 34.3251 73.9692 34.1128C73.9692 33.9005 73.9229 33.6908 73.8337 33.4982C73.7442 33.3056 73.6142 33.1348 73.4521 32.9977C73.29 32.8606 73.1 32.7605 72.895 32.7044C72.6904 32.6482 72.4758 32.6375 72.2662 32.6727Z" fill="white"/>
<path d="M70.1571 34.0925C70.195 34.3662 70.2846 34.6276 70.4196 34.8637C70.5208 35.0409 70.6471 35.2037 70.7958 35.3468C70.6687 35.1932 70.5667 35.0204 70.4933 34.8346C70.4004 34.5997 70.355 34.3488 70.36 34.0963L70.1571 34.0925ZM72.2667 31.9831C72.0042 31.988 71.7479 32.0407 71.5087 32.1362C71.2408 32.2434 70.9942 32.4045 70.7862 32.6125C70.6954 32.7034 70.6133 32.8016 70.5412 32.9058C70.3012 33.2513 70.1658 33.6621 70.1571 34.0882L70.1842 34.0888L70.36 34.0645C70.3654 33.6874 70.4804 33.3199 70.6912 33.0067C70.7562 32.9097 70.8296 32.8193 70.9104 32.7363C71.0967 32.5444 71.3217 32.392 71.5717 32.29C71.7937 32.1995 72.0292 32.1512 72.2667 32.1462V31.9831ZM72.2667 31.9831C72.4246 31.9831 72.5812 32.0005 72.7333 32.0344C73.1229 32.121 73.4833 32.3148 73.7725 32.5984C73.7825 32.6084 73.7929 32.6184 73.8025 32.6285C74.0958 32.9276 74.2933 33.3039 74.3746 33.7097C74.4 33.835 74.4142 33.9631 74.4162 34.0925M72.2667 31.9831V32.1462C72.4112 32.1434 72.5592 32.1567 72.7021 32.1863C73.0679 32.2621 73.4037 32.4415 73.6704 32.7027C73.6796 32.7119 73.6892 32.7212 73.6983 32.7307C73.9687 33.0071 74.1512 33.3578 74.2217 33.7381C74.2421 33.8482 74.2529 33.9592 74.2542 34.0701L74.4162 34.0925M74.4162 34.0925C74.3775 34.375 74.2829 34.6444 74.1408 34.8864C74.0658 35.0144 73.9771 35.1346 73.8767 35.2451C73.9625 35.128 74.0358 35.001 74.0942 34.8662C74.2 34.6217 74.2537 34.3595 74.2542 34.0956L74.4162 34.0925ZM71.5779 34.1357L71.5825 34.1367V34.0923C71.5821 33.9055 71.6542 33.7257 71.7833 33.5907C71.9117 33.4568 72.0858 33.3771 72.2708 33.3679C72.4617 33.369 72.6442 33.4453 72.7787 33.5801C72.9146 33.716 72.9912 33.9003 72.9912 34.0925H72.9867L72.9958 34.1357C73.0179 34.2413 73.0167 34.3505 72.9912 34.4555C72.9662 34.5604 72.9179 34.6584 72.85 34.7422C72.7817 34.8261 72.6962 34.8937 72.5987 34.9401C72.5012 34.9866 72.3946 35.0107 72.2867 35.0107C72.1787 35.0107 72.0721 34.9866 71.975 34.9401C71.8775 34.8937 71.7917 34.8261 71.7237 34.7422C71.6558 34.6584 71.6075 34.5604 71.5821 34.4555C71.5571 34.3505 71.5554 34.2413 71.5779 34.1357ZM69.9104 36.4485C70.5354 37.0734 71.3829 37.4244 72.2667 37.4244C73.15 37.4244 73.9975 37.0734 74.6225 36.4485C75.2475 35.8237 75.5983 34.9762 75.5983 34.0925C75.5983 33.2089 75.2475 32.3614 74.6225 31.7365C73.9975 31.1117 73.15 30.7607 72.2667 30.7607C71.3829 30.7607 70.5354 31.1117 69.9104 31.7365C69.2854 32.3614 68.9346 33.2089 68.9346 34.0925C68.9346 34.9762 69.2854 35.8237 69.9104 36.4485Z" fill="white"/>
<path d="M72.2667 31.9831C72.0042 31.988 71.7479 32.0407 71.5087 32.1362C71.2408 32.2434 70.9942 32.4045 70.7862 32.6125C70.6954 32.7034 70.6133 32.8016 70.5412 32.9058C70.3012 33.2513 70.1658 33.6621 70.1571 34.0882L70.1842 34.0888L70.36 34.0645C70.3654 33.6874 70.4804 33.3199 70.6912 33.0067C70.7562 32.9097 70.8296 32.8193 70.9104 32.7363C71.0967 32.5444 71.3217 32.392 71.5717 32.29C71.7937 32.1995 72.0292 32.1512 72.2667 32.1462M72.2667 31.9831V32.1462M72.2667 31.9831C72.4246 31.9831 72.5812 32.0005 72.7333 32.0344C73.1229 32.121 73.4833 32.3148 73.7725 32.5984C73.7825 32.6084 73.7929 32.6184 73.8025 32.6285C74.0958 32.9276 74.2933 33.3039 74.3746 33.7097C74.4 33.835 74.4142 33.9631 74.4162 34.0925M72.2667 32.1462C72.4112 32.1434 72.5592 32.1567 72.7021 32.1863C73.0679 32.2621 73.4037 32.4415 73.6704 32.7027C73.6796 32.7119 73.6892 32.7212 73.6983 32.7307C73.9687 33.0071 74.1512 33.3578 74.2217 33.7381C74.2421 33.8482 74.2529 33.9592 74.2542 34.0701L74.4162 34.0925M74.4162 34.0925C74.3775 34.375 74.2829 34.6444 74.1408 34.8864C74.0658 35.0144 73.9771 35.1346 73.8767 35.2451C73.9625 35.128 74.0358 35.001 74.0942 34.8662C74.2 34.6217 74.2537 34.3595 74.2542 34.0956L74.4162 34.0925ZM70.1571 34.0925C70.195 34.3662 70.2846 34.6276 70.4196 34.8637C70.5208 35.0409 70.6471 35.2037 70.7958 35.3468C70.6687 35.1932 70.5667 35.0204 70.4933 34.8346C70.4004 34.5997 70.355 34.3488 70.36 34.0963L70.1571 34.0925ZM71.5779 34.1357L71.5825 34.1367V34.0923C71.5821 33.9055 71.6542 33.7257 71.7833 33.5907C71.9117 33.4568 72.0858 33.3771 72.2708 33.3679C72.4617 33.369 72.6442 33.4453 72.7787 33.5801C72.9146 33.716 72.9912 33.9003 72.9912 34.0925H72.9867L72.9958 34.1357C73.0179 34.2413 73.0167 34.3505 72.9912 34.4555C72.9662 34.5604 72.9179 34.6584 72.85 34.7422C72.7817 34.8261 72.6962 34.8937 72.5987 34.9401C72.5012 34.9866 72.3946 35.0107 72.2867 35.0107C72.1787 35.0107 72.0721 34.9866 71.975 34.9401C71.8775 34.8937 71.7917 34.8261 71.7237 34.7422C71.6558 34.6584 71.6075 34.5604 71.5821 34.4555C71.5571 34.3505 71.5554 34.2413 71.5779 34.1357ZM69.9104 36.4485C70.5354 37.0734 71.3829 37.4244 72.2667 37.4244C73.15 37.4244 73.9975 37.0734 74.6225 36.4485C75.2475 35.8237 75.5983 34.9762 75.5983 34.0925C75.5983 33.2089 75.2475 32.3614 74.6225 31.7365C73.9975 31.1117 73.15 30.7607 72.2667 30.7607C71.3829 30.7607 70.5354 31.1117 69.9104 31.7365C69.2854 32.3614 68.9346 33.2089 68.9346 34.0925C68.9346 34.9762 69.2854 35.8237 69.9104 36.4485Z" stroke="white" stroke-width="0.1"/>
</svg>
