<svg width="100" height="93" viewBox="0 0 100 93" fill="none" xmlns="http://www.w3.org/2000/svg">
<path d="M66.2039 35.9464C60.2066 38.8919 54.7404 42.6749 50.0001 47.1611C45.2843 42.6492 39.8136 38.863 33.7964 35.9464C34.9075 24.1348 40.3705 12.5363 50.2779 3.4111C60.0928 12.451 65.3244 24.0495 66.2039 35.9464ZM50.0001 60.7639C59.9539 46.7774 76.9444 37.5241 96.2966 37.5241C96.2966 80.1654 53.1483 88.1821 50.0001 88.6938C46.8519 88.2246 3.7038 80.1654 3.7038 37.5241C23.0556 37.5241 40.0464 46.7774 50.0001 60.7639ZM50.2316 17.0137C47.176 21.4484 45.0464 26.3521 43.889 31.4691L50.0001 35.6053L56.25 31.4265C55.1853 26.3095 53.1483 21.4057 50.2316 17.0137ZM50.0001 80.0374C50.0001 80.0374 77.7778 75.9014 85.8333 47.1184C59.2594 54.5806 50.0001 76.3276 50.0001 76.3276C50.0001 76.3276 36.1112 50.3165 14.1668 47.1611C22.2223 75.9014 50.0001 80.0374 50.0001 80.0374Z" fill="white" stroke="white" stroke-width="0.5"/>
</svg>
