<svg width="100" height="97" viewBox="0 0 100 97" fill="none" xmlns="http://www.w3.org/2000/svg">
<path d="M37.5 68.2099V60.1852M50 68.2099V52.1605M62.5 68.2099V44.1358M70.8333 84.2593H29.1666C26.9565 84.2593 24.8369 83.4138 23.2741 81.9089C21.7113 80.404 20.8333 78.3628 20.8333 76.2346V20.0617C20.8333 17.9334 21.7113 15.8923 23.2741 14.3874C24.8369 12.8825 26.9565 12.037 29.1666 12.037H52.4416C53.5466 12.0373 54.6063 12.4601 55.3875 13.2127L77.9458 34.9355C78.7273 35.6878 79.1664 36.7082 79.1666 37.7722V76.2346C79.1666 78.3628 78.2887 80.404 76.7259 81.9089C75.1631 83.4138 73.0435 84.2593 70.8333 84.2593Z" stroke="white" stroke-width="10" stroke-linecap="round" stroke-linejoin="round"/>
</svg>
