<svg width="100" height="100" viewBox="0 0 100 100" fill="none" xmlns="http://www.w3.org/2000/svg">
<path d="M56.25 6.25C56.25 2.79297 53.457 0 50 0C46.543 0 43.75 2.79297 43.75 6.25V50C43.75 53.457 46.543 56.25 50 56.25C53.457 56.25 56.25 53.457 56.25 50V6.25ZM28.0273 23.5547C30.6836 21.3477 31.0352 17.4023 28.8281 14.7461C26.6211 12.0898 22.6758 11.7383 20.0195 13.9453C9.70703 22.5391 3.125 35.5078 3.125 50C3.125 75.8789 24.1211 96.875 50 96.875C75.8789 96.875 96.875 75.8789 96.875 50C96.875 35.5078 90.2734 22.5391 79.9609 13.9453C77.3047 11.7383 73.3594 12.1094 71.1523 14.7461C68.9453 17.3828 69.3164 21.3477 71.9531 23.5547C79.5508 29.8633 84.3555 39.375 84.3555 50C84.3555 68.9844 68.9648 84.375 49.9805 84.375C30.9961 84.375 15.6055 68.9844 15.6055 50C15.6055 39.375 20.4297 29.8633 28.0078 23.5547H28.0273Z" fill="white"/>
</svg>
