<svg width="100" height="88" viewBox="0 0 100 88" fill="none" xmlns="http://www.w3.org/2000/svg">
<path d="M29.9667 21.3357C29.9667 23.679 29.0465 25.9264 27.4087 27.5834C25.7709 29.2404 23.5496 30.1713 21.2333 30.1713C18.9171 30.1713 16.6958 29.2404 15.0579 27.5834C13.4201 25.9264 12.5 23.679 12.5 21.3357C12.5 18.9923 13.4201 16.7449 15.0579 15.0879C16.6958 13.4309 18.9171 12.5 21.2333 12.5C23.5496 12.5 25.7709 13.4309 27.4087 15.0879C29.0465 16.7449 29.9667 18.9923 29.9667 21.3357ZM29.9667 44.8975C29.9667 47.2408 29.0465 49.4882 27.4087 51.1452C25.7709 52.8022 23.5496 53.7331 21.2333 53.7331C18.9171 53.7331 16.6958 52.8022 15.0579 51.1452C13.4201 49.4882 12.5 47.2408 12.5 44.8975C12.5 42.5541 13.4201 40.3067 15.0579 38.6497C16.6958 36.9927 18.9171 36.0618 21.2333 36.0618C23.5496 36.0618 25.7709 36.9927 27.4087 38.6497C29.0465 40.3067 29.9667 42.5541 29.9667 44.8975ZM29.9667 68.4593C29.9667 70.8026 29.0465 73.05 27.4087 74.707C25.7709 76.364 23.5496 77.2949 21.2333 77.2949C18.9171 77.2949 16.6958 76.364 15.0579 74.707C13.4201 73.05 12.5 70.8026 12.5 68.4593C12.5 66.1159 13.4201 63.8685 15.0579 62.2115C16.6958 60.5545 18.9171 59.6236 21.2333 59.6236C23.5496 59.6236 25.7709 60.5545 27.4087 62.2115C29.0465 63.8685 29.9667 66.1159 29.9667 68.4593Z" fill="white"/>
<path fill-rule="evenodd" clip-rule="evenodd" d="M35.7883 21.3356C35.7883 19.7733 36.4017 18.2751 37.4936 17.1704C38.5854 16.0657 40.0663 15.4451 41.6105 15.4451H82.366C83.9102 15.4451 85.3911 16.0657 86.483 17.1704C87.5748 18.2751 88.1882 19.7733 88.1882 21.3356C88.1882 22.8978 87.5748 24.3961 86.483 25.5008C85.3911 26.6054 83.9102 27.226 82.366 27.226H41.6105C40.0663 27.226 38.5854 26.6054 37.4936 25.5008C36.4017 24.3961 35.7883 22.8978 35.7883 21.3356ZM35.7883 44.8974C35.7883 43.3351 36.4017 41.8369 37.4936 40.7322C38.5854 39.6275 40.0663 39.0069 41.6105 39.0069H82.366C83.9102 39.0069 85.3911 39.6275 86.483 40.7322C87.5748 41.8369 88.1882 43.3351 88.1882 44.8974C88.1882 46.4596 87.5748 47.9579 86.483 49.0626C85.3911 50.1672 83.9102 50.7878 82.366 50.7878H41.6105C40.0663 50.7878 38.5854 50.1672 37.4936 49.0626C36.4017 47.9579 35.7883 46.4596 35.7883 44.8974ZM35.7883 68.4592C35.7883 66.8969 36.4017 65.3987 37.4936 64.294C38.5854 63.1893 40.0663 62.5687 41.6105 62.5687H82.366C83.9102 62.5687 85.3911 63.1893 86.483 64.294C87.5748 65.3987 88.1882 66.8969 88.1882 68.4592C88.1882 70.0214 87.5748 71.5197 86.483 72.6244C85.3911 73.729 83.9102 74.3496 82.366 74.3496H41.6105C40.0663 74.3496 38.5854 73.729 37.4936 72.6244C36.4017 71.5197 35.7883 70.0214 35.7883 68.4592Z" fill="white"/>
</svg>
