<svg width="97" height="100" viewBox="0 0 97 100" fill="none" xmlns="http://www.w3.org/2000/svg">
<path d="M93.0592 38.8695L54.6208 2.5853L54.5443 2.51319C52.7774 0.896587 50.4699 0 48.0753 0C45.6808 0 43.3728 0.896587 41.6064 2.51319L41.5248 2.5853L3.09618 38.8695C2.12167 39.7711 1.34368 40.8642 0.810929 42.0802C0.27818 43.2963 0.00211057 44.6092 0 45.937V90.3848C0 92.9348 1.01305 95.3804 2.81634 97.1838C4.61958 98.9871 7.06533 100 9.61552 100H32.6928C35.243 100 37.6887 98.9871 39.492 97.1838C41.2951 95.3804 42.3084 92.9348 42.3084 90.3848V69.2303H53.8468V90.3848C53.8468 92.9348 54.8602 95.3804 56.663 97.1838C58.4664 98.9871 60.9124 100 63.4625 100H86.5397C89.0897 100 91.5358 98.9871 93.3391 97.1838C95.142 95.3804 96.1554 92.9348 96.1554 90.3848V45.937C96.1531 44.6092 95.8768 43.2963 95.3444 42.0802C94.8115 40.8642 94.0334 39.7711 93.0592 38.8695ZM84.6165 88.4616H65.3857V67.3076C65.3857 66.0449 65.1368 64.7945 64.6536 63.6275C64.1704 62.461 63.462 61.4011 62.5695 60.5081C61.6764 59.6151 60.6162 58.9072 59.4496 58.424C58.2831 57.9408 57.0327 57.6919 55.77 57.6919H40.3852C37.835 57.6919 35.3893 58.7048 33.586 60.5081C31.7827 62.3115 30.7697 64.7571 30.7697 67.3076V88.4616H11.5387V46.7685L48.0776 12.273L84.6165 46.7685V88.4616Z" fill="white"/>
</svg>
