<svg width="100" height="100" viewBox="0 0 100 100" fill="none" xmlns="http://www.w3.org/2000/svg">
<path d="M60.1247 13.1216L60.123 13.1187C59.0895 11.3512 57.6113 9.88511 55.8353 8.86625C54.0593 7.8474 52.0475 7.31131 50 7.31131C47.9525 7.31131 45.9407 7.8474 44.1647 8.86625C42.3887 9.88511 40.9105 11.3512 39.877 13.1187L39.8753 13.1216L5.7168 72.443C5.71647 72.4435 5.71614 72.4441 5.7158 72.4447C4.71161 74.1629 4.18237 76.1173 4.18237 78.1074C4.18237 80.0978 4.71171 82.0523 5.7161 83.7707C6.73877 85.5473 8.21556 87.0201 9.99505 88.0378C11.7744 89.0556 13.7925 89.5818 15.8422 89.5625H84.1574C86.2061 89.5804 88.2226 89.0535 90.0007 88.0358C91.7787 87.018 93.2542 85.546 94.2762 83.7705C95.2816 82.053 95.8123 80.099 95.8137 78.1088C95.8152 76.1184 95.2872 74.1634 94.284 72.4443C94.2838 72.444 94.2836 72.4436 94.2834 72.4433L60.1247 13.1216ZM85.2993 78.5685L85.2992 78.5685L85.2953 78.5751C85.1821 78.7681 85.0188 78.9269 84.8226 79.0348C84.6265 79.1426 84.4049 79.1955 84.1813 79.1878L84.1727 79.1875H84.1641H15.8398H15.8312L15.8226 79.1878C15.599 79.1955 15.3774 79.1426 15.1813 79.0348C14.9852 78.9269 14.8218 78.7681 14.7086 78.5751L14.7087 78.575L14.7032 78.5662C14.6169 78.4259 14.5712 78.2644 14.5712 78.0996C14.5712 77.9349 14.6169 77.7734 14.7032 77.633L14.707 77.6269L14.7106 77.6206L48.8636 18.3089C48.9867 18.1231 49.1536 17.9703 49.3496 17.8638C49.5493 17.7555 49.7728 17.6987 50 17.6987C50.2272 17.6987 50.4507 17.7555 50.6504 17.8638C50.8464 17.9702 51.0133 18.1231 51.1364 18.3089L85.2854 77.6206L85.2897 77.628L85.2943 77.6353C85.3813 77.7752 85.4279 77.9364 85.4288 78.1012C85.4297 78.2659 85.3848 78.4277 85.2993 78.5685ZM44.8125 35.1875V53.125C44.8125 54.5008 45.359 55.8203 46.3319 56.7931C47.3047 57.766 48.6242 58.3125 50 58.3125C51.3758 58.3125 52.6953 57.766 53.6681 56.7931C54.641 55.8203 55.1875 54.5008 55.1875 53.125V35.1875C55.1875 33.8117 54.641 32.4922 53.6681 31.5194C52.6953 30.5465 51.3758 30 50 30C48.6242 30 47.3047 30.5465 46.3319 31.5194C45.359 32.4922 44.8125 33.8117 44.8125 35.1875ZM55.6124 72.5001C56.3541 71.3901 56.75 70.085 56.75 68.75C56.75 66.9598 56.0388 65.2429 54.773 63.977C53.5071 62.7112 51.7902 62 50 62C48.665 62 47.3599 62.3959 46.2499 63.1376C45.1399 63.8793 44.2747 64.9335 43.7638 66.1669C43.2529 67.4003 43.1193 68.7575 43.3797 70.0669C43.6402 71.3762 44.283 72.579 45.227 73.523C46.171 74.467 47.3738 75.1099 48.6831 75.3703C49.9925 75.6308 51.3497 75.4971 52.5831 74.9862C53.8165 74.4753 54.8707 73.6101 55.6124 72.5001Z" fill="white" stroke="white"/>
</svg>
